<?xml version="1.0" encoding="UTF-8" standalone="no"?>
<!-- Created with Inkscape (http://www.inkscape.org/) -->

<svg
   xmlns:dc="http://purl.org/dc/elements/1.1/"
   xmlns:cc="http://creativecommons.org/ns#"
   xmlns:rdf="http://www.w3.org/1999/02/22-rdf-syntax-ns#"
   xmlns:svg="http://www.w3.org/2000/svg"
   xmlns="http://www.w3.org/2000/svg"
   xmlns:sodipodi="http://sodipodi.sourceforge.net/DTD/sodipodi-0.dtd"
   xmlns:inkscape="http://www.inkscape.org/namespaces/inkscape"
   width="1052.3622"
   height="744.09448"
   id="svg2"
   version="1.1"
   inkscape:version="0.48.0 r9654"
   sodipodi:docname="diagram.svg">
  <defs
     id="defs4">
    <marker
       inkscape:stockid="Arrow1Lend"
       orient="auto"
       refY="0.0"
       refX="0.0"
       id="Arrow1Lend"
       style="overflow:visible;">
      <path
         id="path3820"
         d="M 0.0,0.0 L 5.0,-5.0 L -12.5,0.0 L 5.0,5.0 L 0.0,0.0 z "
         style="fill-rule:evenodd;stroke:#000000;stroke-width:1.0pt;marker-start:none;"
         transform="scale(0.8) rotate(180) translate(12.5,0)" />
    </marker>
  </defs>
  <sodipodi:namedview
     id="base"
     pagecolor="#ffffff"
     bordercolor="#666666"
     borderopacity="1.0"
     inkscape:pageopacity="0.0"
     inkscape:pageshadow="2"
     inkscape:zoom="0.71899471"
     inkscape:cx="573.70809"
     inkscape:cy="358.13893"
     inkscape:document-units="px"
     inkscape:current-layer="layer1"
     showgrid="false"
     inkscape:window-width="1280"
     inkscape:window-height="747"
     inkscape:window-x="0"
     inkscape:window-y="25"
     inkscape:window-maximized="1" />
  <metadata
     id="metadata7">
    <rdf:RDF>
      <cc:Work
         rdf:about="">
        <dc:format>image/svg+xml</dc:format>
        <dc:type
           rdf:resource="http://purl.org/dc/dcmitype/StillImage" />
        <dc:title></dc:title>
      </cc:Work>
    </rdf:RDF>
  </metadata>
  <g
     inkscape:label="Layer 1"
     inkscape:groupmode="layer"
     id="layer1"
     transform="translate(0,-308.2677)">
    <text
       xml:space="preserve"
       style="font-size:40px;font-style:normal;font-weight:normal;line-height:125%;letter-spacing:0px;word-spacing:0px;fill:#000000;fill-opacity:1;stroke:none;font-family:Sans"
       x="109.08865"
       y="380.49063"
       id="text2985"
       sodipodi:linespacing="125%"><tspan
         sodipodi:role="line"
         id="tspan2987"
         x="109.08865"
         y="380.49063">Magnetometer</tspan></text>
    <text
       xml:space="preserve"
       style="font-size:40px;font-style:normal;font-weight:normal;line-height:125%;letter-spacing:0px;word-spacing:0px;fill:#000000;fill-opacity:1;stroke:none;font-family:Sans"
       x="722.41736"
       y="356.46994"
       id="text2989"
       sodipodi:linespacing="125%"><tspan
         sodipodi:role="line"
         id="tspan2991"
         x="722.41736"
         y="356.46994">telemetry.csv</tspan></text>
    <text
       xml:space="preserve"
       style="font-size:40px;font-style:normal;font-weight:normal;line-height:125%;letter-spacing:0px;word-spacing:0px;fill:#000000;fill-opacity:1;stroke:none;font-family:Sans"
       x="387.50534"
       y="584.20856"
       id="text2993"
       sodipodi:linespacing="125%"><tspan
         sodipodi:role="line"
         id="tspan2995"
         x="387.50534"
         y="584.20856"
         style="font-weight:bold;-inkscape-font-specification:Sans Bold">Service</tspan></text>
    <text
       xml:space="preserve"
       style="font-size:40px;font-style:normal;font-weight:normal;line-height:125%;letter-spacing:0px;word-spacing:0px;fill:#000000;fill-opacity:1;stroke:none;font-family:Sans"
       x="545.20563"
       y="696.30957"
       id="text3016"
       sodipodi:linespacing="125%"><tspan
         sodipodi:role="line"
         id="tspan3018"
         x="545.20563"
         y="696.30957"
         style="font-size:32px">queueMag</tspan></text>
    <text
       xml:space="preserve"
       style="font-size:40px;font-style:normal;font-weight:normal;line-height:125%;letter-spacing:0px;word-spacing:0px;fill:#000000;fill-opacity:1;stroke:none;font-family:Sans"
       x="723.23199"
       y="832.61096"
       id="text3020"
       sodipodi:linespacing="125%"><tspan
         sodipodi:role="line"
         id="tspan3022"
         x="723.23199"
         y="832.61096"
         style="font-weight:bold;-inkscape-font-specification:Sans Bold">DB</tspan></text>
    <text
       xml:space="preserve"
       style="font-size:40px;font-style:normal;font-weight:normal;line-height:125%;letter-spacing:0px;word-spacing:0px;fill:#000000;fill-opacity:1;stroke:none;font-family:Sans"
       x="173.85384"
       y="840.95593"
       id="text3024"
       sodipodi:linespacing="125%"><tspan
         sodipodi:role="line"
         id="tspan3026"
         x="173.85384"
         y="840.95593"
         style="font-weight:bold;-inkscape-font-specification:Sans Bold">Analysis</tspan></text>
    <text
       xml:space="preserve"
       style="font-size:40px;font-style:normal;font-weight:normal;line-height:125%;letter-spacing:0px;word-spacing:0px;fill:#000000;fill-opacity:1;stroke:none;font-family:Sans"
       x="691.24292"
       y="476.55823"
       id="text3028"
       sodipodi:linespacing="125%"><tspan
         sodipodi:role="line"
         id="tspan3030"
         x="691.24292"
         y="476.55823">Load and convert</tspan></text>
    <text
       xml:space="preserve"
       style="font-size:40px;font-style:normal;font-weight:normal;line-height:125%;letter-spacing:0px;word-spacing:0px;fill:#000000;fill-opacity:1;stroke:none;font-family:Sans"
       x="105.70314"
       y="959.17651"
       id="text3032"
       sodipodi:linespacing="125%"><tspan
         sodipodi:role="line"
         id="tspan3034"
         x="105.70314"
         y="959.17651">Image</tspan></text>
    <text
       xml:space="preserve"
       style="font-size:40px;font-style:normal;font-weight:normal;line-height:125%;letter-spacing:0px;word-spacing:0px;fill:#000000;fill-opacity:1;stroke:none;font-family:Sans"
       x="311.54608"
       y="964.73987"
       id="text3036"
       sodipodi:linespacing="125%"><tspan
         sodipodi:role="line"
         id="tspan3038"
         x="311.54608"
         y="964.73987">CSV</tspan></text>
    <text
       xml:space="preserve"
       style="font-size:40px;font-style:normal;font-weight:normal;line-height:125%;letter-spacing:0px;word-spacing:0px;fill:#000000;fill-opacity:1;stroke:none;font-family:Sans"
       x="33.37994"
       y="573.91638"
       id="text3040"
       sodipodi:linespacing="125%"><tspan
         sodipodi:role="line"
         id="tspan3042"
         x="33.37994"
         y="573.91638">Activity</tspan></text>
    <path
       style="fill:none;stroke:#000000;stroke-width:1px;stroke-linecap:butt;stroke-linejoin:miter;stroke-opacity:1;marker-end:url(#Arrow1Lend)"
       d="m 190.54382,261.4762 179.41717,-1.39084"
       id="path3044"
       inkscape:connector-curvature="0"
       transform="translate(0,308.2677)"
       sodipodi:nodetypes="cc" />
    <path
       style="fill:none;stroke:#000000;stroke-width:1px;stroke-linecap:butt;stroke-linejoin:miter;stroke-opacity:1;marker-end:url(#Arrow1Lend)"
       d="M 308.76444,84.84068 454.80167,237.83207"
       id="path4258"
       inkscape:connector-curvature="0"
       transform="translate(0,308.2677)"
       sodipodi:nodetypes="cc" />
    <path
       style="fill:none;stroke:#000000;stroke-width:1px;stroke-linecap:butt;stroke-linejoin:miter;stroke-opacity:1;marker-end:url(#Arrow1Lend)"
       d="m 840.06181,68.150709 -1e-5,62.587381"
       id="path4260"
       inkscape:connector-curvature="0"
       transform="translate(0,308.2677)"
       sodipodi:nodetypes="cc" />
    <path
       style="fill:none;stroke:#000000;stroke-width:1px;stroke-linecap:butt;stroke-linejoin:miter;stroke-opacity:1;marker-end:url(#Arrow1Lend)"
       d="m 529.90654,290.68364 59.80573,57.02406"
       id="path4262"
       inkscape:connector-curvature="0"
       transform="translate(0,308.2677)"
       sodipodi:nodetypes="cc" />
    <path
       style="fill:none;stroke:#000000;stroke-width:1px;stroke-linecap:butt;stroke-linejoin:miter;stroke-opacity:1;marker-end:url(#Arrow1Lend)"
       d="m 635.60968,707.43615 86.23153,79.27735"
       id="path4264"
       inkscape:connector-curvature="0"
       sodipodi:nodetypes="cc" />
    <path
       style="fill:none;stroke:#000000;stroke-width:1px;stroke-linecap:butt;stroke-linejoin:miter;stroke-opacity:1;marker-end:url(#Arrow1Lend)"
       d="m 840.0618,196.10715 1.39084,147.42806"
       id="path4994"
       inkscape:connector-curvature="0"
       transform="translate(0,308.2677)"
       sodipodi:nodetypes="cc" />
    <text
       xml:space="preserve"
       style="font-size:40px;font-style:normal;font-weight:normal;line-height:125%;letter-spacing:0px;word-spacing:0px;fill:#000000;fill-opacity:1;stroke:none;font-family:Sans"
       x="769.23273"
       y="692.82117"
       id="text3016-9"
       sodipodi:linespacing="125%"><tspan
         sodipodi:role="line"
         id="tspan3018-7"
         x="769.23273"
         y="692.82117"
         style="font-size:32px">queueGPS</tspan></text>
    <text
       xml:space="preserve"
       style="font-size:40px;font-style:normal;font-weight:normal;line-height:125%;letter-spacing:0px;word-spacing:0px;fill:#000000;fill-opacity:1;stroke:none;font-family:Sans"
       x="216.96962"
       y="564.18054"
       id="text5017"
       sodipodi:linespacing="125%"><tspan
         sodipodi:role="line"
         id="tspan5019"
         x="216.96962"
         y="564.18054"
         style="font-size:14px">start service</tspan></text>
    <path
       style="fill:none;stroke:#000000;stroke-width:1px;stroke-linecap:butt;stroke-linejoin:miter;stroke-opacity:1;marker-start:none;marker-end:url(#Arrow1Lend)"
       d="M 841.45265,710.21781 758.0028,790.88599"
       id="path5220"
       inkscape:connector-curvature="0" />
    <path
       style="fill:none;stroke:#000000;stroke-width:1px;stroke-linecap:butt;stroke-linejoin:miter;stroke-opacity:1;marker-end:url(#Arrow1Lend)"
       d="m 254.52204,860.42753 -65.36905,59.80573"
       id="path5586"
       inkscape:connector-curvature="0" />
    <path
       style="fill:none;stroke:#000000;stroke-width:1px;stroke-linecap:butt;stroke-linejoin:miter;stroke-opacity:1;marker-end:url(#Arrow1Lend)"
       d="m 271.212,861.81836 70.93238,57.02407 0,0"
       id="path5770"
       inkscape:connector-curvature="0" />
    <path
       style="fill:none;stroke:#000000;stroke-width:1px;stroke-linecap:butt;stroke-linejoin:miter;stroke-opacity:1;marker-end:url(#Arrow1Lend)"
       d="m 705.15123,822.87509 -331.01774,6.95417"
       id="path5954"
       inkscape:connector-curvature="0"
       sodipodi:nodetypes="cc" />
    <text
       xml:space="preserve"
       style="font-size:40px;font-style:normal;font-weight:normal;line-height:125%;letter-spacing:0px;word-spacing:0px;fill:#000000;fill-opacity:1;stroke:none;font-family:Sans"
       x="969.68402"
       y="-0.59319836"
       id="text6142"
       sodipodi:linespacing="125%"
       transform="matrix(0.6756247,0.73724573,-0.73724573,0.6756247,0,0)"><tspan
         sodipodi:role="line"
         id="tspan6144"
         x="969.68402"
         y="-0.59319836"
         style="font-size:10px">every 1 sec</tspan></text>
    <text
       xml:space="preserve"
       style="font-size:40px;font-style:normal;font-weight:normal;line-height:125%;letter-spacing:0px;word-spacing:0px;fill:#000000;fill-opacity:1;stroke:none;font-family:Sans"
       x="69.851387"
       y="1087.5035"
       id="text6142-3"
       sodipodi:linespacing="125%"
       transform="matrix(0.7414411,-0.67101796,0.67101796,0.7414411,0,0)"><tspan
         sodipodi:role="line"
         id="tspan6144-5"
         x="69.851387"
         y="1087.5035"
         style="font-size:10px">every 1 sec</tspan></text>
    <text
       xml:space="preserve"
       style="font-size:40px;font-style:normal;font-weight:normal;line-height:125%;letter-spacing:0px;word-spacing:0px;fill:#000000;fill-opacity:1;stroke:none;font-family:Sans"
       x="522.24377"
       y="30.513683"
       id="text6142-6"
       sodipodi:linespacing="125%"
       transform="matrix(0.6756247,0.73724573,-0.73724573,0.6756247,0,0)"><tspan
         sodipodi:role="line"
         id="tspan6144-0"
         x="522.24377"
         y="30.513683"
         style="font-size:10px">callback - add data to the queue</tspan></text>
    <path
       style="fill:none;stroke:#000000;stroke-width:1px;stroke-linecap:butt;stroke-linejoin:miter;stroke-opacity:1"
       d="m 111.26646,479.83663 c 9.51784,-4.75892 6.14589,-1.9734 11.12665,-6.95416 0.92722,-0.92722 1.65724,-2.107 2.78166,-2.78166 1.25714,-0.75428 2.81129,-0.84634 4.1725,-1.39083 0.96251,-0.385 1.81914,-1.00582 2.78166,-1.39083 2.72241,-1.08896 5.72241,-1.47037 8.34498,-2.78166 0.58643,-0.29321 0.80441,-1.09762 1.39083,-1.39083 1.31129,-0.65564 2.78166,-0.92722 4.17249,-1.39083 1.39084,-0.46361 2.75021,-1.03526 4.1725,-1.39083 0.44977,-0.11244 0.93353,0.0762 1.39083,0 2.33179,-0.38863 4.60465,-1.12978 6.95415,-1.39083 1.8431,-0.20479 3.72752,0.26225 5.56333,0 1.45133,-0.20734 2.72116,-1.1835 4.17249,-1.39083 1.8358,-0.26226 3.70888,0 5.56332,0 0.46361,0 0.94106,0.11244 1.39083,0 1.42229,-0.35558 2.7349,-1.10332 4.17249,-1.39083 1.81843,-0.36369 3.70889,0 5.56333,0 1.39083,0 2.78166,0 4.17249,0 1.39083,0 2.79564,-0.1967 4.17249,0 1.8923,0.27032 3.72536,0.86569 5.56333,1.39083 1.40965,0.40275 2.72116,1.18349 4.17249,1.39083 1.8358,0.26225 3.72752,-0.26226 5.56332,0 15.89329,2.27047 -14.52522,1.39083 12.51748,1.39083 12.51748,0 25.03495,0 37.55243,0 4.6361,0 9.27221,0 13.90831,0 1.39083,0 2.80867,-0.27277 4.17249,0 1.01653,0.2033 1.7982,1.06301 2.78166,1.39083 0.43982,0.1466 0.92722,0 1.39083,0 1.39083,0.46361 2.86121,0.73519 4.1725,1.39083 6.0539,3.02695 3.57382,4.80804 11.12664,5.56332 2.76786,0.27679 5.57713,-0.27678 8.34499,0 18.40599,1.8406 -7.06205,1.39083 11.12664,1.39083 3.70889,0 7.41777,0 11.12665,0 1.85444,0 3.72752,-0.26225 5.56332,0 1.45133,0.20734 2.79978,0.87606 4.1725,1.39083 0.11094,0.0416 13.88969,5.55867 13.9083,5.56333 1.34931,0.33732 2.88114,-0.51654 4.1725,0 1.2175,0.487 1.85444,1.85444 2.78166,2.78166 1.39083,0.46361 2.76283,0.98807 4.17249,1.39083 1.85444,0.46361 3.70888,0.92722 5.56332,1.39083 1.85444,0 3.75305,-0.40228 5.56333,0 12.72464,2.8277 1.52763,2.26637 12.51747,5.56332 2.7011,0.81033 5.75297,0.27997 8.34499,1.39083 0.95284,0.40837 0.5615,2.15967 1.39083,2.78167 1.75198,1.31398 10.25402,2.43261 11.12665,2.78166 2.50994,1.00397 4.53625,2.96354 6.95415,4.17249 6.85538,3.42769 1.70177,-1.14208 8.34498,4.17249 1.02395,0.81916 1.65725,2.10701 2.78167,2.78166 1.25714,0.75429 2.79977,0.87607 4.17249,1.39084 2.33765,0.87662 4.67271,1.76768 6.95415,2.78166 21.94524,9.75344 -8.16392,-3.38655 9.73582,5.56332 1.31256,3.44895 3.7499,0.78636 5.56332,1.39083 1.96693,0.65564 3.70888,1.85444 5.56333,2.78166 0.92722,0.46361 2.04862,0.6578 2.78166,1.39083 0.73303,0.73304 0.6578,2.04863 1.39083,2.78166 0.73303,0.73304 1.9191,0.8158 2.78166,1.39084 0.54553,0.36368 0.8453,1.02714 1.39083,1.39083 2.36487,1.57658 4.05939,1.16461 5.56332,4.17249 0.85486,1.70971 0.40737,3.92421 1.39083,5.56332 0.53336,0.88893 2.04863,0.6578 2.78167,1.39083 5.21771,5.21772 0.87995,2.56411 4.17249,6.95416 0.78677,1.04903 2.10701,1.65724 2.78166,2.78166 2.80496,4.67493 -0.033,3.20134 2.78166,6.95415 0.78677,1.04903 1.85444,1.85444 2.78166,2.78166 0.46361,1.39083 0.63655,2.91536 1.39083,4.1725 0.67466,1.12442 2.19524,1.60881 2.78167,2.78166 0.41466,0.82933 -0.29322,1.90202 0,2.78166 0.20733,0.622 0.92722,0.92722 1.39083,1.39083 0.92722,1.39083 2.32244,2.56524 2.78166,4.17249 0.50945,1.78309 -0.50946,3.78024 0,5.56333 0.93623,3.2768 3.53522,3.76781 4.17249,6.95415 0.27276,1.36382 0,2.78166 0,4.17249 0,0.92722 -0.29321,1.90203 0,2.78166 0.20733,0.622 1.1835,0.76884 1.39083,1.39084 0.29321,0.87963 0,1.85444 0,2.78166 0,1.60494 0,3.79172 0,5.56332 0,2.31805 0,4.6361 0,6.95415 0,1.39083 0,2.78167 0,4.1725 0,0.46361 0.11244,0.94106 0,1.39083 -0.35557,1.42229 -0.84635,2.81128 -1.39083,4.17249 -1.31817,3.29543 -1.49148,2.88231 -4.17249,5.56332 -0.46361,0.46361 -1.02715,0.8453 -1.39083,1.39083 -0.65575,0.98362 -2.12592,4.57971 -2.78166,5.56333 -1.36439,2.04657 -4.19895,3.51675 -5.56333,5.56332 -0.57504,0.86256 -0.81579,1.91911 -1.39083,2.78166 -0.39301,0.58952 -3.59703,3.88477 -4.17249,4.17249 -3.88364,1.94183 2.27884,-5.82012 -4.17249,2.78167 -0.622,0.82933 -0.6578,2.04863 -1.39083,2.78166 -0.73304,0.73303 -1.91911,0.81579 -2.78167,1.39083 -0.54552,0.36368 -0.8453,1.02714 -1.39083,1.39083 -1.72511,1.15007 -3.83821,1.63159 -5.56332,2.78166 -0.54553,0.36369 -0.8453,1.02715 -1.39083,1.39083 -0.86256,0.57504 -2.04863,0.6578 -2.78166,1.39083 -0.73303,0.73303 -0.6578,2.04863 -1.39083,2.78166 -0.73304,0.73304 -1.91911,0.8158 -2.78166,1.39083 -1.09106,0.72738 -1.69061,2.05429 -2.78167,2.78167 -0.86255,0.57503 -1.89273,0.85747 -2.78166,1.39083 -1.43336,0.86001 -2.73913,1.92164 -4.17249,2.78166 -0.88893,0.53336 -2.04863,0.6578 -2.78166,1.39083 -0.73303,0.73303 -0.6578,2.04863 -1.39083,2.78166 -0.95852,0.95852 -6.81523,3.15265 -8.34499,4.17249 -3.19525,2.13017 0.59639,0.79444 -2.78166,4.1725 -0.32782,0.32782 -0.97616,-0.20734 -1.39083,0 -0.58643,0.29321 -0.92722,0.92722 -1.39083,1.39083 -0.92722,0.92722 -1.85444,1.85444 -2.78166,2.78166 -1.39083,1.39083 -2.99234,2.59895 -4.1725,4.17249 -0.62199,0.82933 -0.52827,2.20662 -1.39083,2.78166 -0.77149,0.51433 -1.95233,-0.41466 -2.78166,0 -0.92722,0.92722 -1.85444,1.85444 -2.78166,2.78166 0,0.46361 0.32782,1.06301 0,1.39083 -1.34384,1.34384 -7.55986,4.83801 -9.73581,5.56333 -0.43982,0.1466 -0.95102,-0.14661 -1.39084,0 -0.98346,0.32782 -1.77595,1.1394 -2.78166,1.39083 -0.89953,0.22488 -1.88212,-0.22489 -2.78166,0 -4.73621,1.18405 -0.82711,1.59761 -5.56332,2.78166 -0.89954,0.22488 -1.85444,0 -2.78166,0 -1.39083,0 -2.78167,0 -4.1725,0 -5.09971,0 -10.19942,0 -15.29914,0 -9.2722,0 -18.54441,0 -27.81661,0 -0.94278,0 -11.35061,0.23337 -12.51748,0 -1.01653,-0.20331 -1.76513,-1.18752 -2.78166,-1.39083 -1.36382,-0.27276 -2.79564,0.19669 -4.17249,0 -1.8923,-0.27033 -3.66657,-1.15374 -5.56333,-1.39083 -3.22021,-0.40253 -6.52316,0.45895 -9.73581,0 -12.0971,-1.72816 0.12045,-1.39083 -9.73582,-1.39083 -12.51747,0 -25.03495,0 -37.55243,0 -3.70888,0 -7.41776,0 -11.12665,0 -1.16466,0 -5.89647,-0.26442 -6.95415,0 -1.00571,0.25143 -1.76513,1.18752 -2.78166,1.39083 -1.36382,0.27276 -2.78166,0 -4.17249,0 -0.46361,0 -0.95101,-0.14661 -1.39083,0 -0.98347,0.32782 -1.7982,1.06301 -2.78167,1.39083 -1.32491,0.44164 -5.59941,-0.45158 -6.95415,0 -0.98347,0.32782 -1.77595,1.1394 -2.78166,1.39083 -0.89954,0.22488 -1.85444,0 -2.78166,0 -0.92722,0 -1.85444,0 -2.78166,0 -2.78167,0 -5.56333,0 -8.34499,0 -2.78166,0 -5.56332,0 -8.34498,0 -0.92722,0 -1.90203,0.29321 -2.78167,0 -0.62199,-0.20733 -0.8044,-1.09762 -1.39083,-1.39083 -0.41466,-0.20733 -0.94106,0.11244 -1.39083,0 -15.1265,-5.04217 3.66516,0.73303 -6.95415,-1.39083 -1.4376,-0.28752 -2.7349,-1.10331 -4.17249,-1.39083 -1.81843,-0.36369 -3.7449,0.36368 -5.56333,0 -1.43759,-0.28752 -2.76283,-0.98807 -4.17249,-1.39083 -1.83797,-0.52514 -3.78853,-0.68091 -5.56332,-1.39083 -0.60875,-0.2435 -0.92722,-0.92722 -1.39083,-1.39083 -1.39083,-0.46361 -2.7349,-1.10332 -4.1725,-1.39084 -0.90921,-0.18184 -1.90202,0.29322 -2.78166,0 -0.622,-0.20733 -0.92722,-0.92722 -1.39083,-1.39083 -0.92722,-0.46361 -1.77595,-1.1394 -2.78166,-1.39083 -0.89954,-0.22488 -1.88213,0.22489 -2.78166,0 -1.00571,-0.25142 -1.77595,-1.1394 -2.78166,-1.39083 -0.89954,-0.22488 -1.88213,0.22489 -2.78167,0 -2.51732,0.8383 -2.5867,-2.25306 -4.17249,-2.78166 -0.87964,-0.29321 -1.90202,0.29321 -2.78166,0 -1.244,-0.41466 -1.60881,-2.19523 -2.78166,-2.78166 -0.41467,-0.20733 -0.97617,0.20733 -1.39083,0 -0.58643,-0.29321 -0.8453,-1.02715 -1.39083,-1.39083 -0.86256,-0.57504 -1.85444,-0.92722 -2.78166,-1.39083 -0.92722,-0.46361 -1.7982,-1.06301 -2.78167,-1.39083 -0.82995,-0.27666 -1.9517,0.27665 -2.78166,0 -0.98346,-0.32783 -1.85444,-0.92722 -2.78166,-1.39083 -0.92722,-0.46361 -1.9191,-0.8158 -2.78166,-1.39083 -0.54553,-0.36369 -0.80441,-1.09762 -1.39083,-1.39084 -8.40029,-4.20014 -0.58887,0.2005 -6.95416,-1.39083 -1.00571,-0.25142 -1.79819,-1.06301 -2.78166,-1.39083 -0.43982,-0.1466 -0.94106,0.11244 -1.39083,0 -11.576607,-2.89415 1.67888,0.096 -6.95415,-2.78166 -0.439821,-0.14661 -0.927222,0 -1.390833,0 -0.92722,-0.46361 -1.798195,-1.06301 -2.781661,-1.39083 -0.43982,-0.14661 -0.976165,0.20733 -1.390831,0 -1.172852,-0.58643 -1.690604,-2.05429 -2.781662,-2.78166 -0.862556,-0.57504 -2.048629,-0.6578 -2.781661,-1.39083 -0.327822,-0.32782 0.207333,-0.97617 0,-1.39083 -0.293213,-0.58643 -0.927221,-0.92722 -1.390831,-1.39083 -1.854441,-1.85444 -3.708882,-3.70889 -5.563323,-5.56333 -0.927221,-0.92722 -1.994889,-1.73263 -2.781662,-2.78166 -1.243997,-1.65866 -1.537665,-3.90466 -2.781662,-5.56332 -0.786772,-1.04903 -1.962506,-1.75772 -2.781661,-2.78166 -1.306146,-1.63269 -3.305812,-4.78746 -4.172493,-6.95416 -0.544482,-1.3612 -0.846348,-2.81128 -1.39083,-4.17249 -2.081737,-5.20434 -0.907128,-0.42342 -4.172493,-6.95415 -0.655644,-1.31129 -0.511192,-2.99964 -1.390831,-4.1725 -0.621998,-0.82933 -2.318051,-0.46361 -2.781661,-1.39083 -0.621999,-1.24399 0.228651,-2.80058 0,-4.17249 -0.658972,-3.95383 -1.484494,-3.71124 -2.781662,-6.95415 -1.088965,-2.72242 -1.976144,-5.52568 -2.781661,-8.34499 -0.525134,-1.83796 -1.120502,-3.67102 -1.390831,-5.56332 -0.393387,-2.75371 0.393386,-5.59128 0,-8.34499 -1.728357,-12.0985 -0.800198,0.17151 -2.781662,-9.73581 -0.181843,-0.90922 0,-1.85444 0,-2.78166 0,-1.39083 0,-2.78167 0,-4.1725 0,-2.78166 0,-5.56332 0,-8.34498 0,-4.6361 0,-9.27221 0,-13.90831 0,-1.72842 -0.276137,-8.07899 0,-9.73581 0.24102,-1.44612 1.103312,-2.7349 1.390831,-4.1725 0.181843,-0.90921 -0.181843,-1.87244 0,-2.78166 0.287519,-1.43759 0.92722,-2.78166 1.390831,-4.17249 0.995114,-2.98535 1.246805,-4.39606 2.781661,-6.95416 0.860016,-1.43336 1.921646,-2.73913 2.781662,-4.17249 1.066718,-1.77786 1.486464,-3.94432 2.781662,-5.56332 1.228732,-1.53592 2.943759,-2.63658 4.172492,-4.17249 0.647599,-0.8095 0.768832,-1.95233 1.390831,-2.78166 0.786773,-1.04904 1.854441,-1.85445 2.781661,-2.78167 0,-1.39083 -0.715576,-2.97986 0,-4.17249 0.860016,-1.43336 2.990514,-1.59968 4.172493,-2.78166 1.67835,-1.67835 3.074981,-4.75913 4.172492,-6.95415 0.463611,-0.92723 0.657799,-2.04863 1.390831,-2.78167 0.327822,-0.32782 0.976165,0.20734 1.390831,0 5.788305,-2.89415 -1.486848,0.096 1.390831,-2.78166 3.378052,-3.37805 2.042327,0.41359 4.172492,-2.78166 0.575038,-0.86256 0.657799,-2.04863 1.390831,-2.78166 5.428044,-5.42804 0.746944,0.32194 4.172492,-1.39083 1.06244,-0.53122 3.230692,-3.85856 4.172493,-4.17249 0.879638,-0.29322 1.902023,0.29321 2.781661,0 1.769353,-0.58979 1.012314,-2.19188 2.781663,-2.78167 1.31946,-0.43982 2.78166,0 4.17249,0 3.70888,0 -0.46361,0.46361 1.39083,-1.39083 0.0447,-0.0447 3.83518,0 4.17249,0 6.95416,0 13.90831,0 20.86247,0 3.26174,0 -0.65565,-0.32782 2.78166,1.39083 0.8312,0.41561 2.78166,-0.91557 2.78166,1.39083 0,0.46362 -0.95101,-0.1466 -1.39083,0 -0.98347,0.32783 -1.85444,0.92723 -2.78166,1.39084"
       id="path6188"
       inkscape:connector-curvature="0"
       transform="translate(0,308.2677)" />
    <path
       style="fill:none;stroke:#000000;stroke-width:1px;stroke-linecap:butt;stroke-linejoin:miter;stroke-opacity:1"
       d="m 682.89793,401.9501 c -5.93421,-4.45065 -3.24528,-4.17249 -6.95416,-4.17249 -0.46361,0 -0.97616,0.20733 -1.39083,0 -0.58642,-0.29321 -0.8044,-1.09762 -1.39083,-1.39083 -0.41466,-0.20733 -0.92722,0 -1.39083,0 -0.92722,0 -1.95233,0.41467 -2.78166,0 -0.41467,-0.20733 0.41466,-1.1835 0,-1.39083 -1.65866,-0.82933 -3.80405,0.58643 -5.56332,0 -6.13943,-2.04648 5.05311,-1.39083 -4.1725,-1.39083 -2.78166,0 -5.56332,0 -8.34498,0 -0.46361,0 -0.92722,0 -1.39083,0 -0.46361,0 -0.97617,0.20733 -1.39083,0 -0.58643,-0.29321 -0.80441,-1.09762 -1.39083,-1.39083 -0.41467,-0.20733 -0.92722,0 -1.39083,0 -0.92723,0 -1.85445,0 -2.78167,0 -3.24527,0 -6.49054,0 -9.73581,0 -0.46361,0 -0.92722,0 -1.39083,0 -0.46361,0 -1.06301,-0.32782 -1.39083,0 -0.32783,0.32782 0.32782,1.06301 0,1.39083 -2.87768,2.87768 0.11249,-4.39748 -2.78167,1.39083 -0.21163,0.42328 0,3.54612 0,4.17249 0,1.34526 -0.20625,7.93249 0,8.34499 3.18265,6.36528 -0.57646,-5.90188 2.78167,4.17249 0.1466,0.43982 -0.20734,0.97616 0,1.39083 0.58642,1.17285 2.19523,1.60881 2.78166,2.78166 2.04647,4.09295 -3.22198,-1.83114 1.39083,2.78166 0.46361,0.46361 0.92722,0.92722 1.39083,1.39083 0.46361,0.46361 1.09762,0.80441 1.39083,1.39083 0.55633,1.11267 -0.55633,3.05983 0,4.1725 0.58643,1.17285 2.367,1.53766 2.78166,2.78166 0.002,0.006 -10e-4,4.17116 0,4.17249 0.32782,0.32782 1.06301,-0.32782 1.39083,0 0.32782,0.32782 -0.20733,0.97617 0,1.39083 0.58643,1.17285 2.367,1.53767 2.78166,2.78166 0.29322,0.87964 -0.29321,1.90203 0,2.78167 0.20734,0.62199 1.1835,0.76883 1.39084,1.39083 0.29321,0.87963 -0.29322,1.90202 0,2.78166 0.20733,0.622 1.18349,0.76883 1.39083,1.39083 0.21205,0.63615 -0.30945,4.94443 0,5.56332 0.29321,0.58643 1.18349,0.76883 1.39083,1.39083 0.29321,0.87964 -0.41467,1.95233 0,2.78166 0.20733,0.41467 1.06301,-0.32782 1.39083,0 0.46331,0.46332 -0.46332,2.31835 0,2.78167 0.32782,0.32782 0.92722,0 1.39083,0 0.46361,0.92722 1.06301,1.79819 1.39083,2.78166 0.69541,2.08624 -1.39083,1.39083 0,4.17249 1.43884,0 1.92233,-0.32782 2.78166,1.39083 0.20733,0.41467 -0.20733,0.97617 0,1.39083 0.29321,0.58643 1.09762,0.80441 1.39083,1.39083 0.41467,0.82933 -0.29321,1.90203 0,2.78166 1.68072,5.04217 0.6599,0.98985 2.78166,4.1725 1.15008,1.72511 1.63159,3.83821 2.78166,5.56332 0.80705,1.21056 1.97462,1.5711 2.78167,2.78166 1.15007,1.72511 1.63158,3.83821 2.78166,5.56332 1.09106,1.63659 3.08143,2.53591 4.17249,4.1725 0.25717,0.38574 -0.14661,0.95101 0,1.39083 3.35812,10.07436 -0.40098,-2.1928 2.78166,4.17249 0.20733,0.41467 0,0.92722 0,1.39083 0.46361,0.92722 0.8158,1.91911 1.39083,2.78166 0.42604,0.63906 2.35563,2.14261 2.78166,2.78166 0.57504,0.86256 0.8158,1.91911 1.39084,2.78167 0.36368,0.54552 1.09761,0.8044 1.39083,1.39083 0.20733,0.41466 -0.20734,0.97616 0,1.39083 1.06508,2.13016 2.47848,1.08765 4.17249,2.78166 0.001,10e-4 -0.002,4.16619 0,4.17249 0.20733,0.622 0.92722,0.92722 1.39083,1.39083 0.46361,0.46361 0.8453,1.02715 1.39083,1.39083 0.86256,0.57504 1.91911,0.8158 2.78166,1.39083 0.54553,0.36369 0.92722,0.92722 1.39083,1.39083 0.92722,0.92723 2.05429,1.69061 2.78166,2.78167 1.43884,2.15826 -2.36264,0.90492 1.39083,2.78166 0.41467,0.20733 0.97617,-0.20733 1.39084,0 0.58642,0.29321 0.8453,1.02714 1.39083,1.39083 7.0262,4.68414 0.0322,0.0107 4.17249,1.39083 10.07437,3.35812 -2.1928,-0.40098 4.17249,2.78166 0.41467,0.20733 0.97617,-0.20733 1.39083,0 0.58643,0.29321 0.8453,1.02715 1.39083,1.39083 0.86256,0.57504 1.91911,0.8158 2.78166,1.39083 0.54553,0.36369 0.76884,1.1835 1.39084,1.39083 0.87963,0.29322 1.95233,-0.41466 2.78166,0 0.41466,0.20734 -0.32782,1.06301 0,1.39083 0.65564,0.65565 1.95233,-0.41466 2.78166,0 0.58642,0.29322 0.8044,1.09762 1.39083,1.39084 0.41467,0.20733 0.92722,0 1.39083,0 0.92722,0 1.85444,0 2.78166,0 1.35,0 6.08945,0 6.95416,0 0.46361,0 0.97616,-0.20734 1.39083,0 0.58642,0.29321 0.8044,1.09761 1.39083,1.39083 0.41466,0.20733 0.92722,0 1.39083,0 0.92722,0 1.90202,-0.29322 2.78166,0 0.622,0.20733 0.80441,1.09761 1.39083,1.39083 0.81773,0.40886 4.4216,-0.28543 5.56332,0 1.4223,0.35557 2.75021,1.03525 4.1725,1.39083 0.44976,0.11244 0.97616,-0.20734 1.39083,0 0.58642,0.29321 0.76883,1.1835 1.39083,1.39083 1.31946,0.43982 2.78166,0 4.17249,0 3.24527,0 6.49054,0 9.73582,0 3.24527,0 6.49054,0 9.73581,0 1.39083,0 2.85304,0.43982 4.17249,0 0.622,-0.20733 0.76884,-1.1835 1.39084,-1.39083 0.87963,-0.29322 1.90202,0.29321 2.78166,0 0.622,-0.20734 0.92722,-0.92722 1.39083,-1.39083 1.59132,-1.59132 1.64642,-1.93964 4.17249,-2.78166 0.43982,-0.14661 0.95101,0.1466 1.39083,0 2.52607,-0.84203 2.58117,-1.19034 4.17249,-2.78167 0.46361,-0.46361 1.09762,-0.8044 1.39083,-1.39083 0.55634,-1.11266 -0.55633,-3.05982 0,-4.17249 0.29322,-0.58643 1.1835,-0.76883 1.39083,-1.39083 0.43982,-1.31946 0,-2.78166 0,-4.17249 0,-3.70889 0,-7.41777 0,-11.12665 0,-0.3305 0.15587,-5.2516 0,-5.56332 -0.29321,-0.58643 -1.09761,-0.80441 -1.39083,-1.39083 -0.41466,-0.82933 0.41467,-1.95233 0,-2.78166 -4.6128,-4.61281 0.65565,1.31128 -1.39083,-2.78167 -0.58642,-1.17285 -2.36699,-1.53766 -2.78166,-2.78166 -0.29321,-0.87964 0.22489,-1.88212 0,-2.78166 -0.25143,-1.00571 -1.06301,-1.7982 -1.39083,-2.78166 -0.14661,-0.43982 0.20733,-0.97617 0,-1.39083 -0.29321,-0.58643 -1.09762,-0.80441 -1.39083,-1.39083 -0.41467,-0.82933 0.41467,-1.95233 0,-2.78166 -0.29321,-0.58643 -1.09762,-0.80441 -1.39083,-1.39084 -0.41467,-0.82933 0.29321,-1.90202 0,-2.78166 -1.7984,-5.39521 -1.82478,-0.65091 -4.17249,-4.17249 -1.15008,-1.72511 -1.63159,-3.83821 -2.78166,-5.56332 -0.36369,-0.54553 -1.09762,-0.80441 -1.39084,-1.39083 -0.41466,-0.82933 0.41467,-1.95233 0,-2.78167 -0.29321,-0.58642 -0.92722,-0.92722 -1.39083,-1.39083 -0.46361,-0.46361 -0.8453,-1.02714 -1.39083,-1.39083 -0.86255,-0.57503 -2.04863,-0.6578 -2.78166,-1.39083 -0.32782,-0.32782 0.20733,-0.97616 0,-1.39083 -0.29321,-0.58642 -0.92722,-0.92722 -1.39083,-1.39083 -0.46361,-0.46361 -0.8044,-1.09762 -1.39083,-1.39083 -0.41467,-0.20733 -0.97617,0.20733 -1.39083,0 -1.17285,-0.58643 -1.69061,-2.05429 -2.78166,-2.78166 -0.86256,-0.57504 -1.95233,-0.76883 -2.78166,-1.39083 -1.71378,-1.28533 -3.79271,-4.38292 -5.56333,-5.56333 -0.86255,-0.57503 -2.04863,-0.65779 -2.78166,-1.39083 -0.73303,-0.73303 -0.5615,-2.15966 -1.39083,-2.78166 -1.17285,-0.87964 -2.95265,-0.5776 -4.17249,-1.39083 -0.38575,-0.25716 0.20733,-0.97616 0,-1.39083 -0.29322,-0.58643 -0.92722,-0.92722 -1.39083,-1.39083 -0.46361,-0.46361 -0.76884,-1.1835 -1.39083,-1.39083 -6.02177,-2.00726 0.51119,2.65884 -5.56333,-1.39083 -2.8661,-1.91074 0.0916,-2.73585 -2.78166,-4.17249 -1.31129,-0.65565 -2.8612,-0.73519 -4.17249,-1.39084 -1.17285,-0.58642 -1.60881,-2.19523 -2.78166,-2.78166 -0.41467,-0.20733 -0.97617,0.20734 -1.39083,0 -0.58643,-0.29321 -0.76884,-1.1835 -1.39083,-1.39083 -9.22562,0 1.96693,0.65565 -4.1725,-1.39083 -0.87964,-0.29321 -1.90202,0.29321 -2.78166,0 -4.34123,-1.44707 0.46361,-0.92722 -1.39083,-2.78166 -0.32782,-0.32782 -1.06301,0.32782 -1.39083,0 -0.32782,-0.32782 0.32782,-1.06301 0,-1.39083 -0.73303,-0.73303 -1.91911,-0.81579 -2.78166,-1.39083 -0.54553,-0.36369 -0.76883,-1.1835 -1.39083,-1.39083 -0.87964,-0.29322 -1.90203,0.29321 -2.78166,0 -1.244,-0.41467 -1.69061,-2.05429 -2.78167,-2.78166 -1.7107,-1.14047 -3.85262,-1.6412 -5.56332,-2.78167 -0.54553,-0.36368 -0.8044,-1.09761 -1.39083,-1.39083 -0.41467,-0.20733 -1.06301,0.32783 -1.39083,0 0,-3.70888 0.46361,0.46361 -1.39083,-1.39083 -0.32782,-0.32782 0.32782,-1.06301 0,-1.39083 -0.32782,-0.32782 -0.95101,0.14661 -1.39083,0 -0.98347,-0.32782 -1.7982,-1.06301 -2.78166,-1.39083 -0.43982,-0.14661 -1.06301,0.32782 -1.39084,0 -0.32782,-0.32782 0.32783,-1.06301 0,-1.39083 -2.87767,-2.87768 0.1125,4.39747 -2.78166,-1.39083 -0.20733,-0.41467 0.20734,-0.97617 0,-1.39083 -0.18464,-0.36928 -3.80321,-3.98785 -4.17249,-4.17249 -0.41466,-0.20734 -0.99329,0.23852 -1.39083,0 -1.53949,-0.9237 -11.94753,-9.16588 -12.51748,-9.73582 -0.32782,-0.32782 0.32782,-1.06301 0,-1.39083 -0.32782,-0.32782 -1.06301,-0.32782 -1.39083,0 -0.32782,0.32782 0.32782,1.06301 0,1.39083 -0.32782,0.32782 -0.92722,0 -1.39083,0"
       id="path6190"
       inkscape:connector-curvature="0"
       transform="translate(0,308.2677)" />
    <path
       style="fill:none;stroke:#000000;stroke-width:1px;stroke-linecap:butt;stroke-linejoin:miter;stroke-opacity:1"
       d="m 701.93288,322.17601 c -1.85444,0 -5.56332,1.85444 -5.56332,0 0,-1.85444 6.39265,-1.65866 5.56332,0 -1.11652,2.23304 -4.6594,1.79819 -6.95415,2.78166 -0.95285,0.40836 -1.95233,0.76883 -2.78166,1.39083 -0.44087,0.33065 -6.3745,6.08467 -6.95416,6.95415 -0.57504,0.86256 -1.06301,1.7982 -1.39083,2.78167 -0.41725,1.25174 0.41725,2.92074 0,4.17249 -0.20733,0.622 -1.1835,0.76883 -1.39083,1.39083 -0.57578,1.72734 0.45717,5.12547 0,6.95415 -0.25143,1.00571 -1.06301,1.7982 -1.39083,2.78166 -0.14661,0.43982 0,0.92723 0,1.39084 0,0.92722 0,1.85444 0,2.78166 0,0.92722 0.22488,1.88212 0,2.78166 -0.25143,1.00571 -1.06301,1.79819 -1.39083,2.78166 -0.29321,0.87964 0,1.85444 0,2.78166 0,2.78166 0,5.56333 0,8.34499 0,7.41776 0,14.83553 0,22.25329 0,6.02693 0,12.05387 0,18.0808 0,2.31805 0,4.6361 0,6.95415 0,0.46361 -0.14661,0.95102 0,1.39084 0.32782,0.98346 1.1394,1.77595 1.39083,2.78166 0.22488,0.89953 0,1.85444 0,2.78166 0,0.92722 0,1.85444 0,2.78166 0,3.24527 0,6.49054 0,9.73582 0,8.66298 -0.41467,-3.46416 1.39083,5.56332 0.27276,1.36382 0,2.78166 0,4.17249 0,3.70888 0,7.41777 0,11.12665 0,1.39083 -0.22865,2.80058 0,4.17249 0.24102,1.44612 1.03526,2.7502 1.39083,4.17249 0.36383,1.45533 -0.44605,4.22517 0,5.56333 0.32782,0.98346 1.06301,1.79819 1.39083,2.78166 0.41725,1.25175 -0.41725,2.92074 0,4.17249 0.20733,0.622 1.1835,0.76883 1.39083,1.39083 0.29322,0.87964 -0.22488,1.88213 0,2.78166 0.25143,1.00571 1.06301,1.7982 1.39083,2.78166 0.41725,1.25175 -0.41725,2.92075 0,4.1725 0.20734,0.622 1.23182,0.75476 1.39083,1.39083 0.40634,1.62534 -0.49114,8.26239 0,9.73581 0.20734,0.622 1.1835,0.76884 1.39083,1.39083 0.41725,1.25175 -0.41724,2.92075 0,4.1725 0.32783,0.98346 1.06301,1.79819 1.39084,2.78166 0.38856,1.16569 -0.46087,4.64158 0,5.56332 0.29321,0.58643 1.18349,0.76883 1.39083,1.39083 0.29321,0.87964 -0.22489,1.88213 0,2.78166 0.25142,1.00572 1.1394,1.77595 1.39083,2.78167 0.22488,0.89953 -0.29322,1.90202 0,2.78166 0.20733,0.622 1.1835,0.76883 1.39083,1.39083 0.29321,0.87964 -0.22489,1.88212 0,2.78166 0.25143,1.00571 1.1394,1.77595 1.39083,2.78166 0.22488,0.89954 -0.29321,1.90202 0,2.78166 0.20733,0.622 1.1835,0.76883 1.39083,1.39083 0.41725,1.25175 -0.41725,2.92075 0,4.1725 3.35812,10.07436 -0.40098,-2.1928 2.78166,4.17249 0.41467,0.82933 -0.29321,1.90202 0,2.78166 0.46361,0.92722 0.92722,1.85444 1.39083,2.78166 0,0.92722 -0.29321,1.90202 0,2.78166 1.44708,4.34123 0.92722,-0.46361 2.78166,1.39083 0.007,0.007 -0.0116,4.126 0,4.1725 0.25143,1.00571 0.92722,1.85444 1.39083,2.78166 0.46361,0.92722 0.6578,2.04863 1.39084,2.78166 0.32782,0.32782 1.063,-0.32782 1.39083,0 2.62667,2.62667 0.65635,2.6254 1.39083,5.56332 1.00843,4.03374 1.08509,1.62764 2.78166,4.1725 1.71179,2.56768 2.4607,5.77729 4.17249,8.34498 0.36369,0.54553 1.1835,0.76883 1.39083,1.39083 0.29321,0.87964 -0.29321,1.90202 0,2.78166 0.20733,0.622 1.1835,0.76883 1.39083,1.39083 0.29322,0.87964 -0.22488,1.88213 0,2.78166 1.00844,4.03374 1.08509,1.62764 2.78166,4.1725 1.15008,1.72511 1.53767,3.90466 2.78167,5.56332 0.78677,1.04903 1.85444,1.85444 2.78166,2.78166 0.46361,0.46361 1.09762,0.80441 1.39083,1.39083 0.20733,0.41467 0,0.92722 0,1.39083 0,0.92722 -0.41467,1.95233 0,2.78167 0.20733,0.41466 1.1835,-0.41467 1.39083,0 0.41466,0.82933 -0.29321,1.90202 0,2.78166 0.20733,0.622 1.02714,0.8453 1.39083,1.39083 0.57504,0.86255 0.92722,1.85444 1.39083,2.78166 0.46361,0.92722 1.1394,1.77595 1.39083,2.78166 0.22489,0.89954 -0.29321,1.90202 0,2.78166 0.31394,0.9418 3.64127,3.11006 4.17249,4.1725 0.30945,0.61888 -0.21205,4.92717 0,5.56332 1.44708,4.34123 0.92722,-0.46361 2.78167,1.39083 0.73303,0.73303 1.063,1.79819 1.39083,2.78166 0.29321,0.87964 -0.29322,1.90202 0,2.78166 0.32782,0.98347 1.06301,1.7982 1.39083,2.78166 0.1466,0.43982 -0.32782,1.06301 0,1.39083 0.32782,0.32783 1.06301,-0.32782 1.39083,0 0.65564,0.65565 -0.41467,1.95234 0,2.78167 0.29321,0.58642 1.1835,0.76883 1.39083,1.39083 0.29321,0.87964 -0.41467,1.95233 0,2.78166 0.20733,0.41466 1.06301,-0.32782 1.39083,0 0.65564,0.65564 -0.41467,1.95233 0,2.78166 0.29321,0.58643 0.92722,0.92722 1.39083,1.39083 0,0.92722 -0.41467,1.95233 0,2.78166 0.20733,0.41467 0.97617,-0.20733 1.39083,0 3.0752,1.5376 0.43161,0.86321 1.39083,2.78166 0.68431,1.36862 4.87902,4.19471 5.56333,5.56333 0.48034,0.96069 -0.48821,6.46594 0,6.95415 2.87767,2.87768 -0.1125,-4.39747 2.78166,1.39083 0.20733,0.41467 -0.20734,0.97617 0,1.39083 0.29321,0.58643 1.09761,0.80441 1.39083,1.39083 0.43708,0.87417 -0.43709,4.68916 0,5.56333 0.29321,0.58642 1.09762,0.8044 1.39083,1.39083 0.37029,0.74058 -0.37029,2.04108 0,2.78166 0.29321,0.58643 1.09762,0.8044 1.39083,1.39083 0.20733,0.41467 -0.20733,0.97617 0,1.39083 0.29321,0.58643 1.09762,0.80441 1.39083,1.39083 0.20733,0.41467 -0.20733,0.97617 0,1.39083 0.29321,0.58643 1.09762,0.80441 1.39083,1.39083 0.20733,0.41467 -0.20733,0.97617 0,1.39083 0.29321,0.58643 1.09762,0.80441 1.39083,1.39084 0.20733,0.41466 -0.32782,1.063 0,1.39083 2.87768,2.87767 -0.11249,-4.39748 2.78166,1.39083 1.23104,2.46207 -2.06877,0.47526 1.39083,2.78166 7.02621,4.68414 0.0322,0.0107 4.1725,1.39083 0.98346,0.32782 1.77595,1.1394 2.78166,1.39083 0.89953,0.22488 1.90202,-0.29321 2.78166,0 0.622,0.20733 0.8044,1.09762 1.39083,1.39083 0.41467,0.20733 0.95101,-0.14661 1.39083,0 0.98347,0.32782 1.77595,1.1394 2.78166,1.39083 1.05768,0.26442 5.78949,0 6.95416,0 0.46361,0 0.95101,-0.1466 1.39083,0 0.98346,0.32782 1.77595,1.1394 2.78166,1.39083 1.3493,0.33733 2.78166,0 4.17249,0 4.17249,0 8.34499,0 12.51748,0 4.17249,0 8.34498,0 12.51748,0 0.46361,0 0.92722,0 1.39083,0 0.46361,0 1.06301,-0.32782 1.39083,0 0.32782,0.32782 -0.32782,1.06301 0,1.39083 10e-4,10e-4 4.16619,-0.002 4.17249,0 0.622,0.20734 0.76883,1.1835 1.39083,1.39083 1.31946,0.43982 2.78166,0 4.17249,0 5.09972,0 10.19943,0 15.29914,0 0.7763,0 6.31748,-0.21222 6.95416,0 0.622,0.20734 0.76883,1.1835 1.39083,1.39084 0.63667,0.21222 6.17785,0 6.95415,0 6.02694,0 12.05387,0 18.0808,0 6.49055,0 12.98109,0 19.47163,0 3.24528,0 6.49055,0 9.73582,0 0.62637,0 3.74921,0.21163 4.17249,0 0.58643,-0.29322 0.80441,-1.09762 1.39083,-1.39084 0.80328,-0.40163 6.98044,0.34114 8.34499,0 1.00571,-0.25142 1.79819,-1.063 2.78166,-1.39083 0.43982,-0.1466 0.97616,0.20734 1.39083,0 0.58643,-0.29321 0.8044,-1.09761 1.39083,-1.39083 0.41467,-0.20733 0.95101,0.14661 1.39083,0 5.04217,-1.68072 0.98985,-0.6599 4.17249,-2.78166 0.86256,-0.57504 1.91911,-0.81579 2.78167,-1.39083 1.09105,-0.72737 1.53766,-2.367 2.78166,-2.78166 0.87964,-0.29321 1.90202,0.29321 2.78166,0 1.244,-0.41467 1.53766,-2.367 2.78166,-2.78166 0.87964,-0.29322 1.95233,0.41466 2.78166,0 0.41467,-0.20734 -0.20733,-0.97617 0,-1.39083 0.29321,-0.58643 0.92722,-0.92722 1.39083,-1.39083 0.46361,-0.46361 0.8453,-1.02715 1.39083,-1.39084 1.71071,-1.14046 3.85262,-1.64119 5.56333,-2.78166 1.63658,-1.09105 2.59894,-2.99233 4.17249,-4.17249 0.82933,-0.622 1.95233,-0.76883 2.78166,-1.39083 1.04903,-0.78677 1.85444,-1.85444 2.78166,-2.78166 0.46361,-0.46361 1.02715,-0.8453 1.39083,-1.39083 0.57504,-0.86256 0.8158,-1.91911 1.39083,-2.78166 0.36369,-0.54553 0.92722,-0.92722 1.39083,-1.39084 0.89075,-0.89074 4.69562,-4.26176 5.56333,-5.56332 4.04967,-6.07451 -0.61643,0.45844 1.39083,-5.56332 0.20733,-0.622 1.02714,-0.8453 1.39083,-1.39083 5.04221,-10.08433 -1.46606,2.19909 2.78171,-4.17249 0.7337,-1.10057 3.7631,-7.1171 4.1724,-8.34499 0.1467,-0.43982 -0.2073,-0.97616 0,-1.39083 0.2933,-0.58643 1.1835,-0.76883 1.3909,-1.39083 0.5533,-1.65992 -0.5533,-3.90341 0,-5.56332 0.2073,-0.622 0.9272,-0.92722 1.3908,-1.39084 0.4636,-0.92722 1.063,-1.79819 1.3908,-2.78166 0.1466,-0.43982 0,-0.92722 0,-1.39083 0.4636,-1.39083 0.7352,-2.8612 1.3909,-4.17249 0.2932,-0.58643 1.1835,-0.76883 1.3908,-1.39083 0.2932,-0.87964 -0.4147,-1.95233 0,-2.78166 0.5864,-1.17285 2.1952,-1.60881 2.7817,-2.78166 1.244,-1.09717 -0.622,-2.9285 0,-4.1725 0.2932,-0.58642 1.1835,-0.76883 1.3908,-1.39083 0.5587,-1.67603 -0.5587,-3.88729 0,-5.56332 1.4909,-4.47269 1.2908,1.69103 2.7817,-2.78166 0.2932,-0.87964 -0.2933,-1.90203 0,-2.78166 0.2073,-0.622 1.1834,-0.76884 1.3908,-1.39083 0.5864,-1.75928 -0.5864,-3.80405 0,-5.56333 0.2073,-0.622 0.9272,-0.92722 1.3908,-1.39083 0.4636,-0.92722 1.1394,-1.77595 1.3908,-2.78166 0.2249,-0.89954 -0.2248,-1.88213 0,-2.78166 -0.8382,-2.51732 2.2531,-2.5867 2.7817,-4.17249 0.2932,-0.87964 -0.2249,-1.88213 0,-2.78167 0.2514,-1.00571 0.9272,-1.85444 1.3908,-2.78166 0.4636,-0.92722 0.6578,-2.04863 1.3909,-2.78166 0.3278,-0.32782 1.063,0.32782 1.3908,0 0.9585,-0.95852 3.1527,-6.81522 4.1725,-8.34498 0.3637,-0.54553 1.0271,-0.84531 1.3908,-1.39083 1.1501,-1.72512 1.715,-3.78546 2.7817,-5.56333 -0.1359,-3.07595 2.8867,-3.63459 4.1725,-5.56332 0.575,-0.86256 0.9272,-1.85444 1.3908,-2.78166 0.4636,-0.92722 1.1394,-1.77595 1.3908,-2.78166 0.2249,-0.89954 -0.2932,-1.90203 0,-2.78167 0.2074,-0.62199 1.1835,-0.76883 1.3909,-1.39083 0.2932,-0.87964 -0.2249,-1.88212 0,-2.78166 0.5028,-2.01142 2.126,-3.59639 2.7816,-5.56332 0.4443,-1.33271 -0.4295,-5.66567 0,-6.95416 0.2074,-0.62199 1.0976,-0.8044 1.3909,-1.39083 0.4146,-0.82933 -0.4147,-1.95233 0,-2.78166 0.2932,-0.58642 1.0976,-0.8044 1.3908,-1.39083 0.4437,-0.8874 -0.4278,-6.09866 0,-6.95415 0.2073,-0.41467 1.063,0.32782 1.3908,0 0.2159,-0.21584 -0.1804,-3.63129 0,-4.1725 0.3278,-0.98346 1.063,-1.79819 1.3909,-2.78166 0.2735,-0.82076 0,-6.17706 0,-6.95415 0,-0.46361 -0.1467,-0.95101 0,-1.39083 0.3278,-0.98347 1.063,-1.7982 1.3908,-2.78166 0.1466,-0.43982 -0.2073,-0.97617 0,-1.39083 0.2932,-0.58643 1.0976,-0.80441 1.3908,-1.39084 0.2073,-0.41466 0,-0.92722 0,-1.39083 0,-0.92722 0,-1.85444 0,-2.78166 0,-1.17997 -0.2307,-7.42221 0,-8.34498 0.2514,-1.00571 1.063,-1.7982 1.3908,-2.78166 0.2933,-0.87964 0,-1.85445 0,-2.78167 0,-2.31805 0,-4.6361 0,-6.95415 0,-0.47382 0.251,-4.8106 0,-5.56332 -0.3278,-0.98347 -1.1394,-1.77595 -1.3908,-2.78166 -0.2249,-0.89954 0.2932,-1.90203 0,-2.78167 -0.2073,-0.62199 -0.9272,-0.92722 -1.3908,-1.39083 -0.4636,-0.92722 -1.1394,-1.77595 -1.3908,-2.78166 -0.3374,-1.3493 0.4398,-2.85303 0,-4.17249 -0.3279,-0.98347 -1.0631,-1.7982 -1.3909,-2.78166 -0.1466,-0.43982 0.1466,-0.95101 0,-1.39083 -0.3278,-0.98347 -1.063,-1.7982 -1.3908,-2.78167 -0.1466,-0.43981 0.1466,-0.95101 0,-1.39083 -0.3278,-0.98346 -1.063,-1.79819 -1.3908,-2.78166 -0.4173,-1.25175 0.4172,-2.92074 0,-4.17249 -0.3279,-0.98347 -1.1394,-1.77595 -1.3909,-2.78166 -0.6746,-1.30778 0.3374,-2.82319 0,-4.17249 0.3192,-2.79299 -2.1761,-4.53208 -2.7816,-6.95416 -0.2249,-0.89953 0.2932,-1.90202 0,-2.78166 -0.2074,-0.622 -1.1835,-0.76883 -1.3909,-1.39083 -0.2932,-0.87964 0,-1.85444 0,-2.78166 0,-0.92722 0,-1.85444 0,-2.78166 0,-0.47382 0.2509,-4.8106 0,-5.56333 -0.3278,-0.98346 -1.1394,-1.77595 -1.3908,-2.78166 -0.2249,-0.89953 0.2932,-1.90202 0,-2.78166 -0.2073,-0.622 -1.1835,-0.76883 -1.3908,-1.39083 -0.2932,-0.87964 0.2249,-1.88213 0,-2.78166 -3.94,-7.88001 0.5183,2.07333 -1.3909,-5.56333 -0.2514,-1.00571 -0.9272,-1.85444 -1.3908,-2.78166 -0.9128,-1.82561 -1.8688,-3.73771 -2.7816,-5.56332 -0.4637,-0.92722 -1.1395,-1.77595 -1.3909,-2.78166 -0.3373,-1.34931 0.4398,-2.85304 0,-4.17249 -0.6556,-1.96694 -2.126,-3.5964 -2.7816,-5.56333 -0.4399,-1.31946 0.4398,-2.85303 0,-4.17249 -0.2074,-0.622 -1.1835,-0.76883 -1.3909,-1.39083 -0.2932,-0.87964 0.2932,-1.90202 0,-2.78166 -0.4146,-1.244 -2.367,-1.53767 -2.7816,-2.78166 -0.2932,-0.87964 0.2932,-1.90203 0,-2.78167 -0.2074,-0.62199 -1.1835,-0.76883 -1.3909,-1.39083 0,-6.33145 0.6557,-0.0795 -1.3908,-4.17249 -0.2073,-0.41466 0,-0.92722 0,-1.39083 0,-1.39083 0.3373,-2.82319 0,-4.17249 -0.159,-0.63607 -1.1835,-0.76883 -1.3908,-1.39083 -0.2932,-0.87964 0.4146,-1.95233 0,-2.78166 -0.2074,-0.41467 -1.063,0.32782 -1.3909,0 -0.6556,-0.65565 0.4147,-1.95233 0,-2.78167 -0.2932,-0.58642 -1.0976,-0.8044 -1.3908,-1.39083 -0.2073,-0.41466 0.1466,-0.95101 0,-1.39083 -0.3278,-0.98346 -1.063,-1.79819 -1.3908,-2.78166 -0.1466,-0.43982 0.2073,-0.97616 0,-1.39083 -0.2932,-0.58643 -1.0976,-0.80441 -1.3908,-1.39083 -0.2074,-0.41467 0.1466,-0.95101 0,-1.39083 -0.3279,-0.98347 -1.0631,-1.7982 -1.3909,-2.78166 -0.1466,-0.43982 0.3278,-1.06301 0,-1.39083 -0.3278,-0.32783 -1.063,0.32782 -1.3908,0 -0.6557,-0.65565 0.4147,-1.95233 0,-2.78167 -0.1844,-0.36884 -2.5973,-2.41282 -2.7817,-2.78166 -0.2073,-0.41466 0.3279,-1.06301 0,-1.39083 -2.8777,-2.87768 0.1125,4.39748 -2.7816,-1.39083 -0.2074,-0.41466 0.2073,-0.97616 0,-1.39083 -0.2932,-0.58643 -0.9273,-0.92722 -1.3909,-1.39083 -0.4636,-0.46361 -0.8044,-1.09762 -1.3908,-1.39083 -0.4147,-0.20733 -0.9762,0.20733 -1.3908,0 -1.1729,-0.58643 -1.6088,-2.19524 -2.7817,-2.78166 -0.8293,-0.41467 -1.902,0.29321 -2.7816,0 -0.98351,-0.32782 -2.04868,-0.6578 -2.78171,-1.39083 -1.85444,-1.85445 2.95041,-1.33459 -1.39083,-2.78167 -1.50644,-0.50214 -8.62818,0.55382 -9.73582,0 -0.41466,-0.20733 0.32783,-1.063 0,-1.39083 -0.007,-0.007 -4.12599,0.0116 -4.17249,0 -1.00571,-0.25142 -1.7982,-1.06301 -2.78166,-1.39083 -0.43982,-0.1466 -0.92722,0 -1.39083,0 -2.31805,0 -4.6361,0 -6.95416,0 -6.49054,0 -12.98108,0 -19.47163,0 -6.02693,0 -12.05386,0 -18.0808,0 -1.43901,0 -8.67598,-0.26496 -9.73581,0 -1.00572,0.25143 -1.77595,1.13941 -2.78166,1.39083 -0.89954,0.22489 -1.85445,0 -2.78167,0 -2.31805,0 -4.6361,0 -6.95415,0 -0.46361,0 -0.92722,0 -1.39083,0 -0.46361,0 -1.06301,-0.32782 -1.39083,0 -0.32782,0.32783 0.41466,1.1835 0,1.39083 -0.34157,0.17079 -8.90696,0 -9.73582,0 -1.61568,0 -5.6933,-0.31521 -6.95415,0 -1.00571,0.25143 -1.76513,1.18753 -2.78166,1.39083 -1.36383,0.27277 -2.78167,0 -4.1725,0 -2.78166,0 -5.56332,0 -8.34498,0 -0.92722,0 -1.88213,-0.22488 -2.78166,0 -1.00571,0.25143 -1.77595,1.13941 -2.78166,1.39084 -0.89954,0.22488 -1.85445,0 -2.78167,0 -0.92722,0 -1.85444,0 -2.78166,0 -4.17249,0 -8.34498,0 -12.51747,0 -1.17997,0 -7.42222,-0.2307 -8.34499,0 -1.00571,0.25142 -1.7982,1.06301 -2.78166,1.39083 -0.90114,0.30038 -5.81548,0 -6.95416,0 -4.6361,0 -9.2722,0 -13.9083,0 -6.02694,0 -12.05387,0 -18.0808,0 -1.45598,0 -7.21396,-0.28276 -8.34499,0 -1.00571,0.25142 -1.79819,1.06301 -2.78166,1.39083 -0.43982,0.1466 -0.92722,0 -1.39083,0 -1.39083,0 -2.78166,0 -4.17249,0 -2.31805,0 -4.63611,0 -6.95416,0 -7.88137,0 -15.76275,0 -23.64412,0 -3.24527,0 -6.49054,0 -9.73582,0 -0.62637,0 -3.74921,-0.21164 -4.17249,0 -0.58642,0.29321 -0.76883,1.1835 -1.39083,1.39083 -0.87964,0.29321 -1.85444,0 -2.78166,0 -3.24527,0 -6.49055,0 -9.73582,0 -1.39083,0 -2.85303,-0.43982 -4.17249,0 -0.622,0.20733 -0.8044,1.09762 -1.39083,1.39083 -0.55145,0.27573 -3.88816,-0.28434 -4.17249,0 -0.32782,0.32782 0.32782,1.06301 0,1.39083 -0.32782,0.32782 -0.92722,0 -1.39083,0 -0.46361,0 -0.92722,0 -1.39083,0"
       id="path6194"
       inkscape:connector-curvature="0" />
    <path
       style="fill:none;stroke:#000000;stroke-width:1px;stroke-linecap:butt;stroke-linejoin:miter;stroke-opacity:1"
       d="m 828.93516,525.73405 c -2.05022,1.53766 -5.43199,4.59232 -8.34498,5.56332 -0.43982,0.14661 -0.97617,-0.20733 -1.39083,0 -0.58643,0.29321 -0.80441,1.09762 -1.39083,1.39083 -0.41467,0.20733 -0.95102,-0.14661 -1.39084,0 -0.92722,0.46361 -1.85444,0.92722 -2.78166,1.39083 -0.46361,0 -0.95101,-0.14661 -1.39083,0 -0.98346,0.32782 -1.77595,1.1394 -2.78166,1.39083 -1.05768,0.26442 -5.78949,0 -6.95415,0 -2.78167,0 -5.56333,0 -8.34499,0 -0.46361,0 -0.92722,0 -1.39083,0 -0.46361,0 -0.97616,-0.20733 -1.39083,0 -0.58643,0.29321 -0.80441,1.09762 -1.39083,1.39083 -0.41467,0.20733 -0.92722,0 -1.39083,0 -0.92722,0 -1.85444,0 -2.78166,0 -3.24528,0 -6.49055,0 -9.73582,0 -3.70888,0 -7.41776,0 -11.12665,0 -0.72729,0 -5.19761,0.18286 -5.56332,0 -0.58642,-0.29321 -0.76883,-1.1835 -1.39083,-1.39083 -1.75928,-0.58642 -3.80405,0.58643 -5.56332,0 -0.622,-0.20733 -0.8453,-1.02714 -1.39083,-1.39083 -0.86256,-0.57504 -1.85444,-0.92722 -2.78167,-1.39083 -0.92722,-0.46361 -1.85444,-0.92722 -2.78166,-1.39083 -0.92722,0 -1.90202,0.29321 -2.78166,0 -1.244,-0.41467 -1.6906,-2.05429 -2.78166,-2.78166 -0.86256,-0.57504 -1.85444,-0.92722 -2.78166,-1.39083 -0.92722,-0.46361 -1.77595,-1.13941 -2.78166,-1.39083 -0.89954,-0.22489 -1.95233,0.41466 -2.78166,0 -0.41467,-0.20734 0.20733,-0.97617 0,-1.39084 -0.29322,-0.58642 -1.02715,-0.8453 -1.39084,-1.39083 -0.57503,-0.86255 -0.65779,-2.04863 -1.39083,-2.78166 -0.32782,-0.32782 -0.92722,0 -1.39083,0 -0.46361,-0.46361 -1.02714,-0.8453 -1.39083,-1.39083 -0.847,-1.27051 -1.18719,-3.37525 -2.78166,-4.17249 -0.41467,-0.20733 -1.1835,0.41466 -1.39083,0 -0.41467,-0.82933 0.29321,-1.90202 0,-2.78166 -0.41467,-1.244 -2.19524,-1.60881 -2.78166,-2.78166 -0.20733,-0.41467 0.1466,-0.95102 0,-1.39083 -0.65565,-1.96694 -1.85444,-3.70889 -2.78166,-5.56333 -0.46361,-0.92722 -1.13941,-1.77595 -1.39083,-2.78166 -0.22489,-0.89954 0.29321,-1.90202 0,-2.78166 -0.20734,-0.622 -1.09762,-0.80441 -1.39084,-1.39083 -0.20733,-0.41467 0.14661,-0.95101 0,-1.39083 -0.32782,-0.98347 -1.1394,-1.77595 -1.39083,-2.78166 -0.22488,-0.89954 0,-1.85445 0,-2.78167 0,-2.78166 0,-5.56332 0,-8.34498 0,-4.6361 0,-9.27221 0,-13.90831 0,-1.59481 -0.36018,-4.12257 0,-5.56332 0.25143,-1.00571 1.06301,-1.7982 1.39083,-2.78166 0.14661,-0.43982 -0.32782,-1.06301 0,-1.39083 0.32783,-0.32783 1.06301,0.32782 1.39084,0 0.32782,-0.32783 -0.20734,-0.97617 0,-1.39084 0.29321,-0.58642 1.09761,-0.8044 1.39083,-1.39083 0.20733,-0.41466 -0.20734,-0.97616 0,-1.39083 0.29321,-0.58642 0.92722,-0.92722 1.39083,-1.39083 1.39083,-1.39083 2.78166,-2.78166 4.17249,-4.17249 0.46361,-0.46361 1.02714,-0.8453 1.39083,-1.39083 7.41776,-11.12665 -5.09971,5.09971 4.17249,-4.17249 1.69401,-1.69401 0.6515,-3.10741 2.78166,-4.1725 0.41467,-0.20733 0.97617,0.20734 1.39084,0 1.17285,-0.58642 1.53766,-2.36699 2.78166,-2.78166 0.87964,-0.29321 1.95233,0.41467 2.78166,0 0.41466,-0.20733 -0.32782,-1.06301 0,-1.39083 0.32782,-0.32782 0.95101,0.14661 1.39083,0 0.98347,-0.32782 2.04863,-0.6578 2.78166,-1.39083 1.85444,-1.85444 -2.9504,-1.33458 1.39083,-2.78166 6.33146,0 0.0795,0.65564 4.17249,-1.39083 0.41467,-0.20733 0.92722,0 1.39083,0 0.92723,0 1.95234,0.41466 2.78167,0 0.41466,-0.20733 -0.32783,-1.06301 0,-1.39083 0.73303,-0.73303 1.9191,-0.8158 2.78166,-1.39083 0.54553,-0.36369 0.76883,-1.1835 1.39083,-1.39083 0.87964,-0.29322 1.88212,0.22488 2.78166,0 5.8189,2.51859 1.60881,-2.19524 2.78166,-2.78167 1.65866,-0.82933 3.76425,0.44977 5.56333,0 1.00571,-0.25142 1.79819,-1.063 2.78166,-1.39083 0.43982,-0.1466 0.97616,0.20734 1.39083,0 0.58642,-0.29321 0.8044,-1.09761 1.39083,-1.39083 0.41466,-0.20733 0.92722,0 1.39083,0 0.92722,0 1.90202,0.29322 2.78166,0 0.622,-0.20733 0.80441,-1.09762 1.39083,-1.39083 1.91845,-0.95922 1.24406,1.68437 2.78166,-1.39083 0.95923,-1.91845 -1.68437,-1.24406 1.39083,-2.78166 0.41467,-0.20733 0.92722,0 1.39084,0 0.92722,-0.46361 1.9191,-0.81579 2.78166,-1.39083 0.54553,-0.36369 0.76883,-1.1835 1.39083,-1.39083 0.87964,-0.29322 1.95233,0.41466 2.78166,0 0.41466,-0.20734 -0.32782,-1.06301 0,-1.39083 0.65564,-0.65565 1.90202,0.29321 2.78166,0 10.07437,-3.35813 -2.19279,0.40098 4.17249,-2.78166 0.82933,-0.41467 2.12602,0.65564 2.78166,0 0.32783,-0.32783 -0.32782,-1.06301 0,-1.39084 0.32783,-0.32782 0.97617,0.20734 1.39084,0 0.58642,-0.29321 0.8044,-1.09761 1.39083,-1.39083 0.82933,-0.41466 1.95233,0.41467 2.78166,0 0.58642,-0.29321 0.8044,-1.09761 1.39083,-1.39083 0.594,-0.297 6.40434,0 6.95415,0 0.62637,0 3.74922,0.21164 4.1725,0 0.58642,-0.29321 0.76883,-1.1835 1.39083,-1.39083 0.87963,-0.29321 1.85444,0 2.78166,0 3.24527,0 6.49054,0 9.73581,0 7.88138,0 15.76275,0 23.64413,0 1.39083,0 2.78166,0 4.17249,0 0.46361,0 1.06301,-0.32782 1.39083,0 2.62667,2.62667 0.65635,2.6254 1.39083,5.56333 0.25143,1.00571 1.06301,1.79819 1.39083,2.78166 0.29321,0.87964 0,1.85444 0,2.78166 0,1.39083 0,2.78166 0,4.17249 0,1.61569 0.31522,5.6933 0,6.95415 -0.25143,1.00572 -1.06301,1.7982 -1.39083,2.78167 -0.14661,0.43982 0,0.92722 0,1.39083 -0.46361,0.92722 -1.06301,1.79819 -1.39083,2.78166 -0.43982,1.31946 0.33733,2.82319 0,4.17249 -0.25143,1.00571 -1.1394,1.77595 -1.39083,2.78166 -0.22488,0.89954 0,1.85444 0,2.78166 0,2.31806 0,4.63611 0,6.95416 0,0.92722 0.22488,1.88212 0,2.78166 -0.25143,1.00571 -1.1394,1.77595 -1.39083,2.78166 -0.22489,0.89954 0,1.85444 0,2.78166 0,0.92722 0,1.85444 0,2.78167 0,0.46361 0.14661,0.95101 0,1.39083 -0.32782,0.98346 -1.06301,1.79819 -1.39083,2.78166 -0.14661,0.43982 0,0.92722 0,1.39083 0,1.13867 0.30038,6.05301 0,6.95415 -0.65565,1.96693 -2.27881,3.5519 -2.78166,5.56333 -0.22489,0.89953 0.22488,1.88212 0,2.78166 -0.25143,1.00571 -1.13941,1.77595 -1.39083,2.78166 -0.44977,1.79907 0.58642,3.80404 0,5.56332 -0.20734,0.622 -1.1835,0.76883 -1.39084,1.39083 -0.69541,2.08625 0.69542,4.86791 0,6.95416 -0.20733,0.622 -1.09761,0.8044 -1.39083,1.39083 -0.19903,0.39806 0,6.21115 0,6.95415 0,0.46361 0.32783,1.06301 0,1.39083 -0.32782,0.32782 -1.063,-0.32782 -1.39083,0 -0.65564,0.65565 0.41467,1.95233 0,2.78166 -0.29321,0.58643 -1.02714,0.84531 -1.39083,1.39084 -0.57504,0.86255 -0.81579,1.9191 -1.39083,2.78166 -0.72737,1.09105 -2.36699,1.53766 -2.78166,2.78166 -0.29321,0.87964 0.41467,1.95233 0,2.78166 -0.20733,0.41467 -1.06301,-0.32782 -1.39083,0 -0.65564,0.65564 0.41466,1.95233 0,2.78166 -0.29321,0.58643 -1.09762,0.80441 -1.39083,1.39083 -0.37726,0.75451 0.38056,5.18276 0,5.56333 -0.65565,0.65564 -2.12602,-0.65565 -2.78166,0 -0.53885,0.53885 1.08987,3.19511 -1.39083,2.78166 -2.46265,-0.41044 -7.88138,-0.46361 -6.95416,-2.78166 0.92722,-2.31806 7.88138,0.46361 6.95416,2.78166 -0.92722,2.31805 -4.63611,-1.85444 -6.95416,-2.78166 z"
       id="path6196"
       inkscape:connector-curvature="0"
       transform="translate(0,308.2677)" />
    <path
       style="fill:none;stroke:#000000;stroke-width:1px;stroke-linecap:butt;stroke-linejoin:miter;stroke-opacity:1"
       d="m 725.84119,691.79202 c 0,-1.85444 -1.85444,-5.56333 0,-5.56333 1.85444,0 1.31129,6.87462 0,5.56333 -2.07333,-2.07333 -1.75212,-5.59955 -2.78166,-8.34499 -0.364,-0.97066 -0.92722,-1.85444 -1.39083,-2.78166 -1.39083,-2.78166 -2.78166,-5.56332 -4.1725,-8.34498 -0.46361,-0.92722 -1.1394,-1.77595 -1.39083,-2.78166 -1.20435,-4.81742 1.76118,-0.83532 -1.39083,-5.56333 -0.36368,-0.54553 -1.02714,-0.8453 -1.39083,-1.39083 -1.29912,-1.94868 -1.48254,-3.61464 -2.78166,-5.56332 -0.72737,-1.09106 -2.05429,-1.69061 -2.78166,-2.78166 -0.57504,-0.86256 -0.92722,-1.85444 -1.39083,-2.78167 0,-0.92722 0.51433,-2.01016 0,-2.78166 -0.57504,-0.86255 -2.04863,-0.6578 -2.78166,-1.39083 -0.73304,-0.73303 -0.85747,-1.89273 -1.39083,-2.78166 -0.86002,-1.43336 -1.95233,-2.72116 -2.78167,-4.17249 -1.02865,-1.80015 -1.48646,-3.94433 -2.78166,-5.56332 -0.6476,-0.8095 -2.20662,-0.52828 -2.78166,-1.39084 -0.51433,-0.77149 0.29321,-1.90202 0,-2.78166 -0.20733,-0.622 -0.92722,-0.92722 -1.39083,-1.39083 -0.89074,-0.89074 -4.69562,-4.26176 -5.56332,-5.56332 -1.15008,-1.72511 -1.53767,-3.90466 -2.78166,-5.56332 -2.42259,-3.23012 -5.20474,-4.59897 -8.34499,-6.95416 -2.12596,-1.59447 -1.0943,-1.64144 -2.78166,-4.17249 -1.23371,-1.85056 -4.25936,-2.86853 -5.56332,-4.17249 -0.73304,-0.73304 -0.8158,-1.91911 -1.39084,-2.78167 -0.36368,-0.54552 -0.99744,-0.86631 -1.39083,-1.39083 -1.00294,-1.33725 -1.59968,-2.99051 -2.78166,-4.17249 -7.10767,-7.10767 1.93984,5.83172 -5.56332,-4.17249 -1.68903,-2.25204 -0.65465,-2.75448 -2.78166,-4.17249 -3.55384,-2.36923 -2.55545,-0.162 -5.56333,-4.1725 -0.62199,-0.82933 -0.81579,-1.9191 -1.39083,-2.78166 -0.72737,-1.09105 -1.85444,-1.85444 -2.78166,-2.78166 -1.39083,-1.39083 -2.78166,-2.78166 -4.17249,-4.17249 -0.92722,-0.92722 -1.99489,-1.73263 -2.78166,-2.78166 -0.622,-0.82933 -1.06301,-1.7982 -1.39083,-2.78166 -0.14661,-0.43982 0.32782,-1.06301 0,-1.39084 -0.73304,-0.73303 -1.91911,-0.81579 -2.78166,-1.39083 -0.76027,-0.50684 -6.63573,-6.4765 -6.95416,-6.95415 -0.25716,-0.38575 0.20733,-0.97617 0,-1.39083 -0.29321,-0.58643 -0.99744,-0.86632 -1.39083,-1.39083 -1.00294,-1.33726 -1.73744,-2.86722 -2.78166,-4.17249 -0.81916,-1.02395 -1.73263,-1.99489 -2.78166,-2.78167 -0.82933,-0.62199 -2.20663,-0.52827 -2.78166,-1.39083 -0.51433,-0.77149 0.34436,-1.92076 0,-2.78166 -0.62081,-1.55201 -1.92165,-2.73913 -2.78167,-4.17249 -0.53336,-0.88893 -0.74323,-1.97216 -1.39083,-2.78166 -1.22873,-1.53592 -3.08143,-2.53591 -4.17249,-4.17249 -0.81323,-1.21984 -0.51119,-2.99965 -1.39083,-4.1725 -0.622,-0.82933 -2.04863,-0.6578 -2.78166,-1.39083 -1.18198,-1.18198 -1.85444,-2.78166 -2.78166,-4.17249 -10.25277,-15.37915 2.24264,3.73775 -4.1725,-6.95415 -2.35901,-3.93169 -1.90811,-3.29894 -4.17249,-5.56333 -0.92722,-0.92722 -1.9625,-1.75772 -2.78166,-2.78166 -2.2378,-2.79725 -2.72802,-4.06522 -4.17249,-6.95415 -0.46361,-0.92722 -0.8158,-1.91911 -1.39083,-2.78166 -0.38093,-0.5714 -3.6011,-3.79157 -4.1725,-4.1725 -0.86255,-0.57504 -2.20662,-0.52827 -2.78166,-1.39083 -0.51433,-0.77149 0.29322,-1.90202 0,-2.78166 -0.92256,-2.76768 -1.29811,-0.64905 -2.78166,-1.39083 -0.59358,-0.29679 -6.57194,-6.44454 -6.95415,-6.95415 -0.622,-0.82934 -0.6578,-2.04863 -1.39083,-2.78167 -0.32783,-0.32782 -1.06301,0.32783 -1.39083,0 -0.73304,-0.73303 -0.76884,-1.95233 -1.39084,-2.78166 -7.50316,-10.00421 1.54436,2.93518 -5.56332,-4.17249 -7.10767,-7.10767 5.83172,1.93984 -4.17249,-5.56332 -0.82933,-0.622 -1.95233,-0.76884 -2.78166,-1.39083 -1.57355,-1.18016 -2.53591,-3.08144 -4.17249,-4.1725 -0.86256,-0.57503 -1.95234,-0.76883 -2.78167,-1.39083 -2.09806,-1.57354 -3.46526,-3.98978 -5.56332,-5.56332 -0.82933,-0.622 -2.04863,-0.6578 -2.78166,-1.39083 -0.73303,-0.73303 -0.6578,-2.04863 -1.39083,-2.78166 -1.18198,-1.18198 -2.99052,-1.59969 -4.17249,-2.78166 -0.73304,-0.73304 -0.6578,-2.04863 -1.39084,-2.78167 -0.73303,-0.73303 -1.95233,-0.76883 -2.78166,-1.39083 -1.04903,-0.78677 -1.73263,-1.99489 -2.78166,-2.78166 -0.82933,-0.622 -1.95233,-0.76883 -2.78166,-1.39083 -1.04903,-0.78677 -1.85444,-1.85444 -2.78166,-2.78166 -0.92722,-0.92722 -1.85444,-1.85444 -2.78166,-2.78166 -0.92722,-0.92722 -1.60881,-2.19524 -2.78166,-2.78166 -0.82934,-0.41467 -2.01017,0.51432 -2.78167,0 -0.86255,-0.57504 -0.76883,-1.95233 -1.39083,-2.78167 -0.78677,-1.04903 -1.85444,-1.85444 -2.78166,-2.78166 -0.92722,-0.92722 -1.73263,-1.99489 -2.78166,-2.78166 -0.82933,-0.622 -2.20662,-0.52827 -2.78166,-1.39083 -0.51433,-0.77149 0.55633,-2.03989 0,-2.78166 -1.00294,-1.33726 -2.86722,-1.73744 -4.17249,-2.78166 -1.53592,-1.22874 -2.53591,-3.08144 -4.1725,-4.1725 -0.86255,-0.57503 -1.9191,-0.81579 -2.78166,-1.39083 -0.54553,-0.36368 -0.92722,-0.92722 -1.39083,-1.39083 -0.92722,-0.92722 -1.85444,-1.85444 -2.78166,-2.78166 -1.39083,-1.39083 -3.08144,-2.5359 -4.17249,-4.17249 -0.25717,-0.38575 0.32782,-1.06301 0,-1.39083 -0.73304,-0.73303 -2.04863,-0.6578 -2.78167,-1.39083 -0.73303,-0.73303 -0.81579,-1.91911 -1.39083,-2.78166 -0.36368,-0.54553 -0.92722,-0.92722 -1.39083,-1.39084 -0.92722,-0.92722 -1.6906,-2.05429 -2.78166,-2.78166 -0.38575,-0.25716 -1.06301,0.32783 -1.39083,0 -0.32782,-0.32782 0.25717,-1.00508 0,-1.39083 -0.72737,-1.09105 -1.85444,-1.85444 -2.78166,-2.78166 -1.85444,-1.85444 -3.70888,-3.70888 -5.56332,-5.56332 -0.92722,-0.92722 -2.05429,-1.69061 -2.78167,-2.78166 -7.41776,-11.12665 5.09972,5.09971 -4.17249,-4.1725 -0.73303,-0.73303 -0.52827,-2.20662 -1.39083,-2.78166 -0.77149,-0.51433 -2.01017,0.51433 -2.78166,0 -0.86256,-0.57504 -0.81579,-1.9191 -1.39083,-2.78166 -0.72737,-1.09106 -1.85444,-1.85444 -2.78166,-2.78166 -1.39083,-1.39083 -2.78166,-2.78166 -4.1725,-4.17249 -0.46361,-0.46361 -1.09761,-0.80441 -1.39083,-1.39083 -0.20733,-0.41467 0.20734,-0.97617 0,-1.39084 -0.29321,-0.58642 -0.92722,-0.92722 -1.39083,-1.39083 -0.46361,-0.46361 -0.8453,-1.02714 -1.39083,-1.39083 -0.86255,-0.57503 -1.85444,-0.92722 -2.78166,-1.39083 -0.92722,-0.92722 -1.6906,-2.05429 -2.78166,-2.78166 -0.38575,-0.25716 -0.97617,0.20733 -1.39083,0 -0.58643,-0.29321 -0.86632,-0.99744 -1.39083,-1.39083 -1.33726,-1.00294 -2.83524,-1.77872 -4.1725,-2.78166 -0.52451,-0.39339 -0.8453,-1.02715 -1.39083,-1.39083 -0.86255,-0.57504 -1.9191,-0.8158 -2.78166,-1.39083 -0.54553,-0.36369 -0.8453,-1.02715 -1.39083,-1.39083 -3.64581,-2.43055 -2.43054,-0.51986 -6.95415,-2.78167 -0.58643,-0.29321 -0.8453,-1.02714 -1.39083,-1.39083 -0.86256,-0.57503 -1.85444,-0.92722 -2.78166,-1.39083 -0.92723,-0.46361 -1.7982,-1.06301 -2.78167,-1.39083 -0.43982,-0.1466 -0.95101,0.14661 -1.39083,0 -0.98346,-0.32782 -1.81914,-1.00582 -2.78166,-1.39083 -1.36121,-0.54448 -2.8612,-0.73519 -4.17249,-1.39083 -0.58643,-0.29321 -0.75476,-1.23181 -1.39083,-1.39083 -1.34931,-0.33733 -2.78166,0 -4.17249,0 -0.46361,0 -0.95102,0.14661 -1.39084,0 -0.98346,-0.32782 -1.79819,-1.06301 -2.78166,-1.39083 -0.43982,-0.14661 -0.92722,0 -1.39083,0 -1.39083,-0.46361 -2.8612,-0.73519 -4.17249,-1.39083 -0.58643,-0.29322 -0.76883,-1.1835 -1.39083,-1.39083 -0.87964,-0.29322 -1.88213,0.22488 -2.78166,0 -1.00571,-0.25143 -1.77595,-1.13941 -2.78166,-1.39083 -0.89954,-0.22489 -1.90203,0.29321 -2.78167,0 -0.62199,-0.20734 -0.76883,-1.1835 -1.39083,-1.39084 -1.72734,-0.57577 -5.12547,0.45718 -6.95415,0 -1.00571,-0.25142 -1.76513,-1.18752 -2.78166,-1.39083 -2.01239,-0.40247 -6.33056,0.50361 -8.34499,0 -1.00571,-0.25142 -1.77595,-1.1394 -2.78166,-1.39083 -0.89953,-0.22488 -1.85444,0 -2.78166,0 -0.92722,0 -1.85444,0 -2.78166,0 -3.70888,0 -7.41777,0 -11.12665,0 -1.39083,0 -2.78166,0 -4.17249,0 -0.92722,0 -1.88213,0.22489 -2.78166,0 -1.00571,-0.25142 -1.7982,-1.06301 -2.78166,-1.39083 -1.31946,-0.43982 -2.82319,0.33733 -4.1725,0 -1.00571,-0.25143 -1.77595,-1.1394 -2.78166,-1.39083 -2.24884,-0.56221 -4.68112,0.45461 -6.95415,0 -1.01653,-0.2033 -1.77595,-1.1394 -2.78166,-1.39083 -1.79908,-0.44977 -3.76425,0.44977 -5.56333,0 -1.00571,-0.25143 -1.76513,-1.18752 -2.78166,-1.39083 -1.81843,-0.36369 -3.70888,0 -5.56332,0 -3.70888,0 -7.41777,0 -11.12665,0 -0.92722,0 -1.85444,0 -2.78166,0 -0.92722,0 -1.90202,0.29321 -2.78166,0 -0.622,-0.20733 -0.76883,-1.1835 -1.39083,-1.39083 -0.87964,-0.29321 -1.85444,0 -2.78166,0 -0.92722,0 -1.85445,0 -2.78167,0 -5.09971,0 -10.19942,0 -15.29913,0 -12.05387,0 -24.10774,0 -36.16161,0 -8.80859,0 -17.61719,0 -26.42578,0 -3.24527,0 -6.49054,0 -9.73582,0 -0.46361,0 -0.92722,0 -1.39083,0 -0.46361,0 -0.97616,-0.20733 -1.39083,0 -0.58642,0.29321 -0.75476,1.23181 -1.39083,1.39083 -1.23862,0.30966 -7.88883,0 -9.73581,0 -0.92723,0 -1.90203,-0.29321 -2.78167,0 -0.62199,0.20733 -0.76883,1.1835 -1.39083,1.39083 -1.15191,0.38397 -6.06966,-0.44224 -6.95415,0 -0.58643,0.29321 -0.76883,1.1835 -1.39083,1.39083 -0.87964,0.29321 -1.85444,0 -2.78166,0 -1.39083,0 -2.78167,0 -4.1725,0 -0.46361,0 -0.97616,-0.20733 -1.39083,0 -0.58642,0.29321 -0.76883,1.1835 -1.39083,1.39083 -1.28848,0.4295 -5.62144,-0.44423 -6.95415,0 -0.98347,0.32782 -1.7982,1.06301 -2.78166,1.39083 -1.31946,0.43982 -2.82319,-0.33732 -4.1725,0 -1.00571,0.25143 -1.79819,1.06301 -2.78166,1.39083 -0.43982,0.14661 -0.94106,-0.11244 -1.39083,0 -1.42229,0.35558 -2.7349,1.10332 -4.17249,1.39083 -0.90922,0.18185 -1.90202,-0.29321 -2.78166,0 -0.622,0.20734 -0.80441,1.09762 -1.39083,1.39084 -1.31129,0.65564 -2.81129,0.84634 -4.1725,1.39083 -0.96251,0.385 -1.77595,1.1394 -2.78166,1.39083 -0.89953,0.22488 -1.90202,-0.29322 -2.78166,0 -0.622,0.20733 -0.75476,1.23181 -1.39083,1.39083 -1.3493,0.33732 -2.82319,-0.33733 -4.17249,0 -0.63607,0.15901 -0.80441,1.09762 -1.39083,1.39083 -0.41467,0.20733 -0.97617,-0.20733 -1.39083,0 -0.58643,0.29321 -0.92722,0.92722 -1.390834,1.39083 -1.086359,1.08636 -2.972344,3.37239 -4.172493,4.17249 -0.862556,0.57504 -2.048629,0.6578 -2.781661,1.39083 -0.733032,0.73303 -0.657799,2.04863 -1.390831,2.78166 -0.327822,0.32783 -1.063009,-0.32782 -1.390831,0 -1.466064,1.46607 -1.537665,3.90466 -2.781662,5.56333 -0.786772,1.04903 -2.054289,1.6906 -2.781661,2.78166 -0.257165,0.38575 0.327822,1.06301 0,1.39083 -3.708882,3.70888 -2.318051,-1.39083 -4.172493,4.17249 -0.388563,1.16569 0.460869,4.64159 0,5.56333 -0.293212,0.58642 -1.097617,0.8044 -1.39083,1.39083 -0.256679,0.51335 0,7.13346 0,8.34498 0,0.54981 -0.297001,6.36015 0,6.95416 0.293213,0.58642 1.097618,0.8044 1.39083,1.39083 0.207333,0.41466 -0.207332,0.97616 0,1.39083 0.08847,0.17694 2.693189,2.60471 2.781662,2.78166 0.207333,0.41466 -0.207333,0.97616 0,1.39083 0.797237,1.59447 2.901986,1.93466 4.172492,2.78166 0.545529,0.36369 0.927221,0.92722 1.390831,1.39083 0.463611,0.46361 1.097618,0.80441 1.390831,1.39083 0.207333,0.41467 -0.207333,0.97617 0,1.39083 0.293213,0.58643 1.027145,0.84531 1.390831,1.39083 0.575038,0.86256 0.815793,1.91911 1.390831,2.78167 -0.138836,2.75531 2.048629,0.65779 2.781661,1.39083 0.733033,0.73303 0.528275,2.20662 1.390831,2.78166 0.771494,0.51433 2.126018,-0.65565 2.781662,0 0.655644,0.65564 -0.51433,2.01017 0,2.78166 0.575034,0.86256 1.919104,0.81579 2.781664,1.39083 0.54553,0.36369 0.86631,0.99744 1.39083,1.39083 1.33725,1.00294 2.83523,1.77872 4.17249,2.78166 5.00464,3.75348 -0.93271,-0.70365 1.39083,2.78166 1.06987,1.60481 3.10262,2.56769 4.17249,4.1725 0.57504,0.86255 0.6578,2.04863 1.39083,2.78166 0.73304,0.73303 1.91911,0.81579 2.78167,1.39083 1.77061,1.18041 3.84954,4.27799 5.56332,5.56332 1.65866,1.244 3.83821,1.63159 5.56332,2.78166 0.54553,0.36369 0.76884,1.1835 1.39083,1.39084 0.87964,0.29321 1.95233,-0.41467 2.78167,0 1.17285,0.58642 1.73263,1.99488 2.78166,2.78166 0.82933,0.622 1.85444,0.92722 2.78166,1.39083 1.95872,0.97936 3.6046,1.8023 5.56332,2.78166 0.92722,0.46361 1.91911,0.81579 2.78166,1.39083 0.54553,0.36369 0.76884,1.1835 1.39083,1.39083 0.87964,0.29321 1.88213,-0.22488 2.78167,0 1.00571,0.25143 1.85444,0.92722 2.78166,1.39083 0.92722,0.46361 2.04863,0.6578 2.78166,1.39083 0.73303,0.73303 0.6578,2.04863 1.39083,2.78166 0.32782,0.32783 1.00508,-0.25716 1.39083,0 3.32518,2.21679 1.75863,3.22132 5.56332,4.1725 0.89954,0.22488 1.90203,-0.29322 2.78167,0 1.24399,0.41466 1.60881,2.19523 2.78166,2.78166 4.52361,2.2618 3.30834,0.35112 6.95415,2.78166 1.09106,0.72737 1.60881,2.19524 2.78166,2.78166 8.40029,4.20015 0.58887,-0.20049 6.95416,1.39083 1.00571,0.25143 1.77595,1.13941 2.78166,1.39083 0.89953,0.22489 1.90202,-0.29321 2.78166,0 0.622,0.20734 0.8453,1.02715 1.39083,1.39083 0.92722,0.46361 1.85444,0.92722 2.78166,1.39083 0.46361,0 0.97617,-0.20733 1.39083,0 1.17285,0.58643 1.60881,2.19524 2.78166,2.78167 1.31129,0.65564 2.86121,0.73518 4.1725,1.39083 0.58642,0.29321 0.76883,1.1835 1.39083,1.39083 0.87964,0.29321 1.88212,-0.22489 2.78166,0 1.00571,0.25143 1.81914,1.00582 2.78166,1.39083 0.18024,0.0721 8.29918,2.75418 8.34499,2.78166 1.12442,0.67465 1.73263,1.99489 2.78166,2.78166 0.82933,0.622 1.85444,0.92722 2.78166,1.39083 6.52349,3.26175 -1.63911,-0.65564 6.95415,2.78166 1.92504,0.77002 3.70889,1.85445 5.56333,2.78167 0.92722,0.46361 1.9191,0.81579 2.78166,1.39083 0.54553,0.36368 0.8453,1.02714 1.39083,1.39083 0.86256,0.57504 1.85444,0.92722 2.78166,1.39083 0.92722,0.46361 1.77595,1.1394 2.78166,1.39083 0.89954,0.22488 1.90203,-0.29321 2.78166,0 0.81145,0.27048 4.30915,4.72721 5.56333,5.56332 10.08433,5.04217 -2.1991,-1.46606 4.17249,2.78166 0.86256,0.57504 1.9191,0.8158 2.78166,1.39084 1.09106,0.72737 1.60881,2.19523 2.78166,2.78166 1.31129,0.65564 2.86121,0.73518 4.1725,1.39083 0.58642,0.29321 0.8453,1.02714 1.39083,1.39083 0.86255,0.57504 1.9191,0.81579 2.78166,1.39083 1.20015,0.8001 3.08613,3.08613 4.17249,4.17249 0.92722,0.92722 1.85444,1.85444 2.78166,2.78166 0.46361,0.46361 1.02715,0.84531 1.39083,1.39083 0.57504,0.86256 0.8158,1.91911 1.39083,2.78167 2.03583,3.05373 1.74046,-0.8664 4.1725,2.78166 0.51433,0.77149 -0.41467,1.95233 0,2.78166 0.58642,1.17285 1.85444,1.85444 2.78166,2.78166 0.92722,0.92722 1.85444,1.85444 2.78166,2.78166 0.92722,0.92722 1.99489,1.73263 2.78166,2.78166 0.622,0.82933 0.92722,1.85444 1.39083,2.78167 0.46361,0.92722 1.06301,1.79819 1.39083,2.78166 0.14661,0.43982 -0.32782,1.06301 0,1.39083 0.85199,0.85198 3.63995,1.18404 4.17249,2.78166 0.29322,0.87964 -0.29321,1.90202 0,2.78166 0.20734,0.622 1.02715,0.8453 1.39084,1.39083 5.04216,10.08433 -1.46607,-2.19909 2.78166,4.17249 1.01984,1.52976 3.21397,7.38647 4.17249,8.34499 0.32782,0.32782 1.1835,-0.41467 1.39083,0 0.41467,0.82933 0,1.85444 0,2.78166 0.46361,0.92722 0.81579,1.91911 1.39083,2.78166 0.36369,0.54553 1.02715,0.8453 1.39083,1.39083 0.57504,0.86256 0.6578,2.04863 1.39083,2.78166 0.32782,0.32783 1.06301,-0.32782 1.39083,0 0.32783,0.32783 -0.1466,0.95102 0,1.39084 0.96743,2.90228 3.20507,4.05186 4.1725,6.95415 0.1466,0.43982 -0.41467,1.1835 0,1.39083 0.82933,0.41467 1.95233,-0.41467 2.78166,0 0.41466,0.20733 -0.20734,0.97617 0,1.39083 0.29321,0.58643 1.02714,0.8453 1.39083,1.39083 0.57504,0.86256 0.81579,1.91911 1.39083,2.78166 1.09106,1.63659 3.08143,2.53591 4.17249,4.1725 0.51433,0.77149 -0.41466,1.95233 0,2.78166 0.29321,0.58642 1.1835,0.76883 1.39083,1.39083 0.29322,0.87964 0,1.85444 0,2.78166 0,0.46361 -0.20733,0.97617 0,1.39083 0.29322,0.58643 1.02715,0.8453 1.39083,1.39083 0.57504,0.86256 0.6578,2.04863 1.39083,2.78166 0.73304,0.73304 2.04863,0.6578 2.78167,1.39083 0.73303,0.73304 0.81579,1.91911 1.39083,2.78167 0.36368,0.54552 1.09761,0.8044 1.39083,1.39083 0.20733,0.41466 0,0.92722 0,1.39083 0,2.07013 -0.20734,1.77524 1.39083,4.17249 0.36368,0.54553 0.92722,0.92722 1.39083,1.39083 0.46361,0.92722 0.81579,1.91911 1.39083,2.78166 0.84406,1.2661 3.55612,2.93975 4.17249,4.17249 0.65565,1.31129 0.73519,2.86121 1.39083,4.1725 1.06509,2.13016 2.47849,1.08765 4.1725,2.78166 0.73303,0.73303 0.81579,1.9191 1.39083,2.78166 0.36368,0.54553 0.92722,0.92722 1.39083,1.39083 0.92722,0.92722 1.85444,1.85444 2.78166,2.78166 0.92722,0.92722 1.6906,2.05429 2.78166,2.78166 3.55384,2.36923 2.55545,0.162 5.56332,4.1725 0.622,0.82933 0.5615,2.15966 1.39083,2.78166 1.17286,0.87964 2.81129,0.84635 4.1725,1.39083 0.96252,0.38501 1.79819,1.06301 2.78166,1.39083 0.43982,0.14661 1.06301,-0.32782 1.39083,0 0.73303,0.73303 0.6578,2.04863 1.39083,2.78166 0.73303,0.73303 1.95233,0.76883 2.78166,1.39083 1.04903,0.78678 1.73263,1.99489 2.78166,2.78166 0.82933,0.622 1.91911,0.8158 2.78166,1.39083 0.54553,0.36369 0.84531,1.02715 1.39084,1.39084 0.86255,0.57503 1.85444,0.92722 2.78166,1.39083 2.78166,1.39083 5.56332,2.78166 8.34498,4.17249 0.92722,0.46361 1.95233,0.76883 2.78166,1.39083 1.04903,0.78677 1.60881,2.19524 2.78167,2.78166 0.82933,0.41467 1.90202,-0.29321 2.78166,0 0.622,0.20733 0.92722,0.92722 1.39083,1.39083 0.92722,0 1.90202,-0.29321 2.78166,0 1.244,0.41467 1.6906,2.05429 2.78166,2.78166 0.86256,0.57504 2.04863,0.6578 2.78166,1.39083 0.32782,0.32783 0,0.92723 0,1.39084 0.46361,0.46361 0.8453,1.02714 1.39083,1.39083 0.70042,3.06422 2.86121,0.73518 4.1725,1.39083 0.58642,0.29321 0.76883,1.18349 1.39083,1.39083 0.87964,0.29321 1.95233,-0.41467 2.78166,0 0.41466,0.20733 -0.20733,0.97616 0,1.39083 0.29321,0.58642 0.92722,0.92722 1.39083,1.39083 0.92722,0.92722 1.60881,2.19524 2.78166,2.78166 0.82933,0.41467 1.90202,-0.29321 2.78166,0 0.622,0.20733 0.8453,1.02715 1.39083,1.39083 2.56769,1.71179 5.7773,2.4607 8.34499,4.17249 0.54553,0.36369 0.92722,0.92722 1.39083,1.39083 0.46361,0.46362 1.02714,0.84531 1.39083,1.39084 0.57504,0.86255 0.5615,2.15966 1.39083,2.78166 7.22744,5.42057 1.87945,0.16287 5.56332,1.39083 5.04217,1.68072 0.98985,0.6599 4.1725,2.78166 0.86255,0.57504 1.9191,0.81579 2.78166,1.39083 0.54553,0.36369 0.8453,1.02715 1.39083,1.39083 0.86255,0.57504 1.9191,0.81579 2.78166,1.39083 0.54553,0.36369 0.8453,1.02715 1.39083,1.39083 3.98919,2.65946 4.35579,0.1222 8.34499,2.78166 1.6048,1.06987 2.56768,3.10263 4.17249,4.1725 0.86255,0.57503 1.9191,0.81579 2.78166,1.39083 3.18264,2.12176 -0.86967,1.10094 4.17249,2.78166 0.43982,0.14661 0.97617,-0.20733 1.39083,0 1.669,0.8345 2.5035,3.33799 4.1725,4.17249 0.82933,0.41467 1.95233,-0.41466 2.78166,0 0.41466,0.20733 -0.20734,0.97617 0,1.39083 1.5376,3.07521 0.86321,0.43161 2.78166,1.39083 1.17285,0.58643 1.53766,2.367 2.78166,2.78167 0.76915,0.25638 6.94435,0 8.34499,0 5.56332,0 11.12664,0 16.68996,0 9.27221,0 18.54442,0 27.81662,0 2.31805,0 4.6361,0 6.95415,0 0.92723,0 1.85445,0 2.78167,0 0.46361,0 0.95101,0.1466 1.39083,0 0.98346,-0.32783 1.77595,-1.13941 2.78166,-1.39084 0.89954,-0.22488 1.85444,0 2.78166,0 0.92722,-0.46361 1.7982,-1.063 2.78166,-1.39083 0.43982,-0.1466 0.97617,0.20734 1.39083,0 0.58643,-0.29321 0.76884,-1.18349 1.39083,-1.39083 0.87964,-0.29321 1.85444,0 2.78167,0 0.46361,0 0.97616,0.20734 1.39083,0 0.58642,-0.29321 0.76883,-1.1835 1.39083,-1.39083 0.87964,-0.29321 1.95233,0.41467 2.78166,0 0.41466,-0.20733 0,-0.92722 0,-1.39083 0.46361,-0.46361 0.76883,-1.1835 1.39083,-1.39083 0.60978,-0.20326 3.2414,0.31036 4.17249,0 0.92722,-0.46361 1.85444,-0.92722 2.78166,-1.39083 0.46361,0 0.95102,0.14661 1.39083,0 3.0361,-1.01203 2.52723,-1.76963 5.56333,-2.78166 0.87964,-0.29321 1.95233,0.41466 2.78166,0 0.58642,-0.29321 0.8453,-1.02715 1.39083,-1.39083 0.86256,-0.57504 1.85444,-0.92722 2.78166,-1.39083 0.92722,-0.46361 1.7982,-1.06301 2.78166,-1.39083 0.43982,-0.14661 0.92722,0 1.39083,0 1.17997,0 7.42222,0.23069 8.34499,0 1.00571,-0.25143 1.79819,-1.06301 2.78166,-1.39084 0.87964,-0.29321 1.85444,0 2.78166,0 1.39083,0 2.78166,0 4.17249,0 4.63611,0 9.27221,0 13.90831,0 10.66304,0 21.32608,0 31.98911,0 4.6361,0 9.27221,0 13.90831,0 0.46361,0 0.92722,0 1.39083,0 0.46361,0 1.06301,0.32783 1.39083,0 0.32782,-0.32782 -0.32782,-1.063 0,-1.39083 0.32782,-0.32782 0.92722,0 1.39083,0 0.46361,0 0.92722,0 1.39083,0 4.63611,0 9.27221,0 13.90831,0 0.37004,0 4.05765,0.22968 4.17249,0 0.43709,-0.87416 -0.43708,-4.68915 0,-5.56332 0.29322,-0.58643 1.09762,-0.8044 1.39083,-1.39083 0.41467,-0.82933 -0.82933,-2.367 0,-2.78166 0.82934,-0.41467 1.85444,0 2.78167,0 2.31805,0 4.6361,0 6.95415,0 z"
       id="path6198"
       inkscape:connector-curvature="0" />
    <text
       xml:space="preserve"
       style="font-size:40px;font-style:normal;font-weight:normal;line-height:125%;letter-spacing:0px;word-spacing:0px;fill:#000000;fill-opacity:1;stroke:none;font-family:Sans"
       x="517.3891"
       y="820.09344"
       id="text6200"
       sodipodi:linespacing="125%"><tspan
         sodipodi:role="line"
         id="tspan6202"
         x="517.3891"
         y="820.09344"
         style="font-size:12px">every minute ?</tspan></text>
  </g>
</svg>
