<?xml version="1.0" encoding="UTF-8" standalone="no"?>
<!-- Created with Inkscape (http://www.inkscape.org/) -->

<svg
   xmlns:dc="http://purl.org/dc/elements/1.1/"
   xmlns:cc="http://creativecommons.org/ns#"
   xmlns:rdf="http://www.w3.org/1999/02/22-rdf-syntax-ns#"
   xmlns:svg="http://www.w3.org/2000/svg"
   xmlns="http://www.w3.org/2000/svg"
   xmlns:xlink="http://www.w3.org/1999/xlink"
   xmlns:sodipodi="http://sodipodi.sourceforge.net/DTD/sodipodi-0.dtd"
   xmlns:inkscape="http://www.inkscape.org/namespaces/inkscape"
   width="744.09448819"
   height="1052.3622047"
   id="svg5240"
   version="1.1"
   inkscape:version="0.48.0 r9654"
   sodipodi:docname="iTesa_icon3.svg">
  <defs
     id="defs5242">
    <marker
       inkscape:stockid="Arrow1Mstart"
       orient="auto"
       refY="0.0"
       refX="0.0"
       id="Arrow1Mstart"
       style="overflow:visible">
      <path
         id="path4482"
         d="M 0.0,0.0 L 5.0,-5.0 L -12.5,0.0 L 5.0,5.0 L 0.0,0.0 z "
         style="fill-rule:evenodd;stroke:#000000;stroke-width:1.0pt;marker-start:none"
         transform="scale(0.4) translate(10,0)" />
    </marker>
    <linearGradient
       id="linearGradient6191">
      <stop
         style="stop-color:#ff6400;stop-opacity:1;"
         offset="0"
         id="stop6193" />
      <stop
         id="stop6201"
         offset="0.5"
         style="stop-color:#000000;stop-opacity:1;" />
      <stop
         style="stop-color:#0096ff;stop-opacity:1;"
         offset="1"
         id="stop6195" />
    </linearGradient>
    <linearGradient
       id="linearGradient4787">
      <stop
         style="stop-color:#0000ff;stop-opacity:1;"
         offset="0"
         id="stop4789" />
      <stop
         style="stop-color:#ff0000;stop-opacity:1;"
         offset="1"
         id="stop4791" />
    </linearGradient>
    <marker
       markerHeight="6"
       markerWidth="8"
       orient="auto"
       markerUnits="strokeWidth"
       refY="5"
       refX="10"
       viewBox="0 0 10 10"
       id="arrow">
      <polyline
         id="polyline4357"
         style="fill:#000000;stroke-width:0px"
         points="0,0 10,5 0,10 3,5" />
    </marker>
    <marker
       markerHeight="6"
       markerWidth="8"
       orient="auto"
       markerUnits="strokeWidth"
       refY="5"
       refX="10"
       viewBox="0 0 10 10"
       id="marker5094">
      <polyline
         id="polyline5096"
         style="fill:#000000;stroke-width:0px"
         points="0,0 10,5 0,10 3,5" />
    </marker>
    <radialGradient
       inkscape:collect="always"
       xlink:href="#linearGradient4462"
       id="radialGradient5008"
       gradientUnits="userSpaceOnUse"
       gradientTransform="matrix(2.7709924,-0.66593651,0.46873184,1.9504147,-1806.1824,-1235.4539)"
       cx="542.28363"
       cy="1241.4823"
       fx="542.28363"
       fy="1241.4823"
       r="76.014671" />
    <linearGradient
       id="linearGradient4462">
      <stop
         style="stop-color:#00ffff;stop-opacity:1;"
         offset="0"
         id="stop4464" />
      <stop
         id="stop4027"
         offset="0.5"
         style="stop-color:#0096ff;stop-opacity:1;" />
      <stop
         style="stop-color:#00ffff;stop-opacity:0;"
         offset="1"
         id="stop4466" />
    </linearGradient>
    <marker
       markerHeight="6"
       markerWidth="8"
       orient="auto"
       markerUnits="strokeWidth"
       refY="5"
       refX="10"
       viewBox="0 0 10 10"
       id="marker5103">
      <polyline
         id="polyline5105"
         style="fill:#000000;stroke-width:0px"
         points="0,0 10,5 0,10 3,5" />
    </marker>
    <marker
       markerHeight="6"
       markerWidth="8"
       orient="auto"
       markerUnits="strokeWidth"
       refY="5"
       refX="10"
       viewBox="0 0 10 10"
       id="marker5107">
      <polyline
         id="polyline5109"
         style="fill:#000000;stroke-width:0px"
         points="0,0 10,5 0,10 3,5" />
    </marker>
    <marker
       markerHeight="6"
       markerWidth="8"
       orient="auto"
       markerUnits="strokeWidth"
       refY="5"
       refX="10"
       viewBox="0 0 10 10"
       id="marker5111">
      <polyline
         id="polyline5113"
         style="fill:#000000;stroke-width:0px"
         points="0,0 10,5 0,10 3,5" />
    </marker>
    <marker
       markerHeight="6"
       markerWidth="8"
       orient="auto"
       markerUnits="strokeWidth"
       refY="5"
       refX="10"
       viewBox="0 0 10 10"
       id="marker5115">
      <polyline
         id="polyline5117"
         style="fill:#000000;stroke-width:0px"
         points="0,0 10,5 0,10 3,5" />
    </marker>
    <linearGradient
       inkscape:collect="always"
       xlink:href="#linearGradient4472"
       id="linearGradient5003"
       gradientUnits="userSpaceOnUse"
       x1="376.49655"
       y1="1240.089"
       x2="528.59375"
       y2="1240.089"
       gradientTransform="matrix(1.199964,-0.32152938,0.32152938,1.199964,-771.5946,-490.93853)" />
    <linearGradient
       id="linearGradient4472">
      <stop
         style="stop-color:#ff0000;stop-opacity:0;"
         offset="0"
         id="stop4474" />
      <stop
         id="stop4029"
         offset="0.5"
         style="stop-color:#ff0000;stop-opacity:1;" />
      <stop
         style="stop-color:#ff0000;stop-opacity:1;"
         offset="1"
         id="stop4476" />
    </linearGradient>
    <marker
       markerHeight="6"
       markerWidth="8"
       orient="auto"
       markerUnits="strokeWidth"
       refY="5"
       refX="10"
       viewBox="0 0 10 10"
       id="marker5124">
      <polyline
         id="polyline5126"
         style="fill:#000000;stroke-width:0px"
         points="0,0 10,5 0,10 3,5" />
    </marker>
    <marker
       markerHeight="6"
       markerWidth="8"
       orient="auto"
       markerUnits="strokeWidth"
       refY="5"
       refX="10"
       viewBox="0 0 10 10"
       id="marker5128">
      <polyline
         id="polyline5130"
         style="fill:#000000;stroke-width:0px"
         points="0,0 10,5 0,10 3,5" />
    </marker>
    <marker
       markerHeight="6"
       markerWidth="8"
       orient="auto"
       markerUnits="strokeWidth"
       refY="5"
       refX="10"
       viewBox="0 0 10 10"
       id="marker5132">
      <polyline
         id="polyline5134"
         style="fill:#000000;stroke-width:0px"
         points="0,0 10,5 0,10 3,5" />
    </marker>
    <marker
       markerHeight="6"
       markerWidth="8"
       orient="auto"
       markerUnits="strokeWidth"
       refY="5"
       refX="10"
       viewBox="0 0 10 10"
       id="marker5136">
      <polyline
         id="polyline5138"
         style="fill:#000000;stroke-width:0px"
         points="0,0 10,5 0,10 3,5" />
    </marker>
    <marker
       markerHeight="6"
       markerWidth="8"
       orient="auto"
       markerUnits="strokeWidth"
       refY="5"
       refX="10"
       viewBox="0 0 10 10"
       id="marker5140">
      <polyline
         id="polyline5142"
         style="fill:#000000;stroke-width:0px"
         points="0,0 10,5 0,10 3,5" />
    </marker>
    <marker
       markerHeight="6"
       markerWidth="8"
       orient="auto"
       markerUnits="strokeWidth"
       refY="5"
       refX="10"
       viewBox="0 0 10 10"
       id="marker5144">
      <polyline
         id="polyline5146"
         style="fill:#000000;stroke-width:0px"
         points="0,0 10,5 0,10 3,5" />
    </marker>
    <marker
       inkscape:stockid="arrowo"
       id="arrowo"
       viewBox="0 0 10 10"
       refX="10"
       refY="5"
       markerUnits="strokeWidth"
       orient="auto"
       markerWidth="8"
       markerHeight="6">
      <polyline
         points="0,0 10,5 0,10 3,5"
         style="fill:#646464;stroke:#646464;stroke-width:0px"
         id="polyline4908" />
    </marker>
    <marker
       inkscape:stockid="arrow-1w"
       id="arrow-1w"
       viewBox="0 0 10 10"
       refX="10"
       refY="5"
       markerUnits="strokeWidth"
       orient="auto"
       markerWidth="8"
       markerHeight="6">
      <polyline
         points="0,0 10,5 0,10 3,5"
         style="fill:#646464;stroke:#646464;stroke-width:0px"
         id="polyline4911" />
    </marker>
    <linearGradient
       id="linearGradient2236">
      <stop
         id="stop2238"
         offset="0"
         style="stop-color:#0f1b40;stop-opacity:1;" />
      <stop
         id="stop2240"
         offset="1"
         style="stop-color:#161d4f;stop-opacity:0;" />
    </linearGradient>
    <linearGradient
       id="linearGradient2194">
      <stop
         style="stop-color:#1cd7fb;stop-opacity:1.0000000;"
         offset="0.0000000"
         id="stop2196" />
      <stop
         style="stop-color:#043f74;stop-opacity:0.0000000;"
         offset="1.0000000"
         id="stop2198" />
    </linearGradient>
    <linearGradient
       id="linearGradient2233">
      <stop
         style="stop-color:#1cd7fb;stop-opacity:1.0000000;"
         offset="0.0000000"
         id="stop2235" />
      <stop
         style="stop-color:#1eadeb;stop-opacity:1.0000000;"
         offset="0.44000000"
         id="stop2237" />
      <stop
         style="stop-color:#0e8adc;stop-opacity:1.0000000;"
         offset="0.57999998"
         id="stop2239" />
      <stop
         style="stop-color:#065297;stop-opacity:1.0000000;"
         offset="0.76999998"
         id="stop2241" />
      <stop
         style="stop-color:#044374;stop-opacity:0.96470588;"
         offset="0.89499998"
         id="stop2243" />
      <stop
         style="stop-color:#043f74;stop-opacity:0.0000000;"
         offset="1.0000000"
         id="stop2245" />
    </linearGradient>
    <linearGradient
       id="linearGradient2189">
      <stop
         style="stop-color:#0f75d2;stop-opacity:0.86458331;"
         offset="0.0000000"
         id="stop2191" />
      <stop
         style="stop-color:#032b51;stop-opacity:1.0000000;"
         offset="1.0000000"
         id="stop2195" />
    </linearGradient>
    <linearGradient
       id="linearGradient5173">
      <stop
         style="stop-color:#0f75d2;stop-opacity:0.86458331;"
         offset="0.0000000"
         id="stop5175" />
      <stop
         style="stop-color:#032b51;stop-opacity:1.0000000;"
         offset="1.0000000"
         id="stop5177" />
    </linearGradient>
    <linearGradient
       id="linearGradient5180">
      <stop
         style="stop-color:#0f75d2;stop-opacity:0.86458331;"
         offset="0.0000000"
         id="stop5182" />
      <stop
         style="stop-color:#032b51;stop-opacity:1.0000000;"
         offset="1.0000000"
         id="stop5184" />
    </linearGradient>
    <linearGradient
       id="linearGradient5187">
      <stop
         style="stop-color:#0f75d2;stop-opacity:0.86458331;"
         offset="0.0000000"
         id="stop5189" />
      <stop
         style="stop-color:#032b51;stop-opacity:1.0000000;"
         offset="1.0000000"
         id="stop5191" />
    </linearGradient>
    <linearGradient
       id="linearGradient2312">
      <stop
         style="stop-color:#f7f7f7;stop-opacity:1.0000000;"
         offset="0.0000000"
         id="stop2314" />
      <stop
         style="stop-color:#9ed4e2;stop-opacity:1.0000000;"
         offset="0.67000002"
         id="stop2320" />
      <stop
         style="stop-color:#3aa5ca;stop-opacity:1.0000000;"
         offset="1.0000000"
         id="stop2316" />
    </linearGradient>
    <linearGradient
       id="linearGradient4066">
      <stop
         id="stop4068"
         offset="0"
         style="stop-color:#ffffff;stop-opacity:1;" />
      <stop
         style="stop-color:#7fbb46;stop-opacity:1;"
         offset="0.38525614"
         id="stop3784" />
      <stop
         style="stop-color:#2b6f0a;stop-opacity:1;"
         offset="0.75510204"
         id="stop3782" />
      <stop
         id="stop4070"
         offset="1"
         style="stop-color:#50d455;stop-opacity:1;" />
    </linearGradient>
    <linearGradient
       inkscape:collect="always"
       xlink:href="#linearGradient4472"
       id="linearGradient5318"
       gradientUnits="userSpaceOnUse"
       gradientTransform="matrix(1.2422942,0,0,1.2422942,-288.81464,-1009.0017)"
       x1="376.49655"
       y1="1240.089"
       x2="528.59375"
       y2="1240.089" />
    <radialGradient
       inkscape:collect="always"
       xlink:href="#linearGradient4462"
       id="radialGradient5323"
       gradientUnits="userSpaceOnUse"
       gradientTransform="matrix(2.8489302,0.07394034,-0.05204429,2.0052727,-1095.455,-1996.7102)"
       cx="542.28363"
       cy="1241.4823"
       fx="542.28363"
       fy="1241.4823"
       r="76.014671" />
    <radialGradient
       inkscape:collect="always"
       xlink:href="#linearGradient4462-9"
       id="radialGradient5323-1"
       gradientUnits="userSpaceOnUse"
       gradientTransform="matrix(2.8489302,0.07394034,-0.05204429,2.0052727,-1095.455,-1995.9194)"
       cx="542.28363"
       cy="1241.4823"
       fx="542.28363"
       fy="1241.4823"
       r="76.014671" />
    <linearGradient
       id="linearGradient4462-9">
      <stop
         style="stop-color:#ff0000;stop-opacity:1;"
         offset="0"
         id="stop4464-8" />
      <stop
         id="stop4027-0"
         offset="0.5"
         style="stop-color:#ff3200;stop-opacity:1;" />
      <stop
         style="stop-color:#ff0000;stop-opacity:0;"
         offset="1"
         id="stop4466-4" />
    </linearGradient>
    <marker
       markerHeight="6"
       markerWidth="8"
       orient="auto"
       markerUnits="strokeWidth"
       refY="5"
       refX="10"
       viewBox="0 0 10 10"
       id="arrow-9">
      <polyline
         id="polyline4357-0"
         style="fill:#000000;stroke-width:0px"
         points="0,0 10,5 0,10 3,5" />
    </marker>
    <radialGradient
       r="76.014671"
       fy="1241.4823"
       fx="542.28363"
       cy="1241.4823"
       cx="542.28363"
       gradientTransform="matrix(-2.8489302,-0.07394034,0.05204429,-2.0052727,1839.0183,3059.0162)"
       gradientUnits="userSpaceOnUse"
       id="radialGradient5344"
       xlink:href="#linearGradient4462-9"
       inkscape:collect="always" />
    <radialGradient
       inkscape:collect="always"
       xlink:href="#linearGradient2236"
       id="radialGradient3235"
       gradientUnits="userSpaceOnUse"
       gradientTransform="matrix(1.7129011,0,0,0.534522,-224.4843,6.78683)"
       cx="205.25664"
       cy="415.32397"
       fx="205.25664"
       fy="415.32397"
       r="41.15823" />
    <radialGradient
       inkscape:collect="always"
       xlink:href="#linearGradient2194"
       id="radialGradient3237"
       gradientUnits="userSpaceOnUse"
       gradientTransform="matrix(0.31485416,0,0,0.31485431,9.672207,2.686946)"
       cx="353.42407"
       cy="175.28014"
       fx="342.10938"
       fy="180.93758"
       r="539.79822" />
    <radialGradient
       inkscape:collect="always"
       xlink:href="#linearGradient2233"
       id="radialGradient3239"
       gradientUnits="userSpaceOnUse"
       gradientTransform="matrix(0.31485416,0,0,0.31485431,9.672207,2.686946)"
       cx="353.42407"
       cy="175.28014"
       fx="342.10938"
       fy="180.93758"
       r="539.79822" />
    <radialGradient
       inkscape:collect="always"
       xlink:href="#linearGradient2189"
       id="radialGradient3241"
       gradientUnits="userSpaceOnUse"
       gradientTransform="matrix(1.036676,0,0,0.999833,-1.366161,0.764419)"
       cx="69.95153"
       cy="53.78804"
       fx="69.95153"
       fy="53.78804"
       r="217.14053" />
    <radialGradient
       inkscape:collect="always"
       xlink:href="#linearGradient2189"
       id="radialGradient3243"
       gradientUnits="userSpaceOnUse"
       gradientTransform="matrix(1.036676,0,0,0.999833,-1.366161,0.764419)"
       cx="69.95153"
       cy="53.78804"
       fx="69.95153"
       fy="53.78804"
       r="217.14053" />
    <radialGradient
       inkscape:collect="always"
       xlink:href="#linearGradient2189"
       id="radialGradient3245"
       gradientUnits="userSpaceOnUse"
       gradientTransform="matrix(1.036676,0,0,0.999833,-1.366161,0.764419)"
       cx="69.95153"
       cy="53.78804"
       fx="69.95153"
       fy="53.78804"
       r="217.14053" />
    <radialGradient
       inkscape:collect="always"
       xlink:href="#linearGradient2189"
       id="radialGradient3247"
       gradientUnits="userSpaceOnUse"
       gradientTransform="matrix(1.036676,0,0,0.999833,-1.466166,0.764432)"
       cx="69.95153"
       cy="53.78804"
       fx="69.95153"
       fy="53.78804"
       r="217.14053" />
    <radialGradient
       inkscape:collect="always"
       xlink:href="#linearGradient2312"
       id="radialGradient3249"
       gradientUnits="userSpaceOnUse"
       gradientTransform="matrix(1.049542,0,0,1.021455,-3.366673,-3.10572)"
       cx="69.95153"
       cy="53.78804"
       fx="69.95153"
       fy="53.78804"
       r="217.14053" />
    <radialGradient
       inkscape:collect="always"
       xlink:href="#linearGradient4066"
       id="radialGradient3251"
       gradientUnits="userSpaceOnUse"
       gradientTransform="matrix(0.01333188,0.84247,-0.982112,0.01554107,143.4348,-9.435806)"
       cx="82.707672"
       cy="62.766144"
       fx="82.707672"
       fy="62.766144"
       r="221.16626" />
    <linearGradient
       inkscape:collect="always"
       xlink:href="#linearGradient6191"
       id="linearGradient3288"
       gradientUnits="userSpaceOnUse"
       x1="174.00012"
       y1="532.36218"
       x2="575.99988"
       y2="532.36218" />
    <radialGradient
       inkscape:collect="always"
       xlink:href="#linearGradient4462"
       id="radialGradient3305"
       gradientUnits="userSpaceOnUse"
       gradientTransform="matrix(2.7709924,-0.66593652,0.46873185,1.9504148,-1699.9343,-1530.5626)"
       cx="542.28363"
       cy="1241.4823"
       fx="542.28363"
       fy="1241.4823"
       r="76.014671" />
    <radialGradient
       inkscape:collect="always"
       xlink:href="#linearGradient4462-9"
       id="radialGradient3309"
       gradientUnits="userSpaceOnUse"
       gradientTransform="matrix(-2.7709924,0.66593652,-0.46873185,-1.9504148,2443.0675,2593.3965)"
       cx="542.28363"
       cy="1241.4823"
       fx="542.28363"
       fy="1241.4823"
       r="76.014671" />
    <radialGradient
       inkscape:collect="always"
       xlink:href="#linearGradient4462-0"
       id="radialGradient3305-4"
       gradientUnits="userSpaceOnUse"
       gradientTransform="matrix(2.7709924,-0.66593652,0.46873185,1.9504148,-1699.9343,-1530.5626)"
       cx="542.28363"
       cy="1241.4823"
       fx="542.28363"
       fy="1241.4823"
       r="76.014671" />
    <linearGradient
       id="linearGradient4462-0">
      <stop
         style="stop-color:#ffff00;stop-opacity:1;"
         offset="0"
         id="stop4464-5" />
      <stop
         id="stop4027-9"
         offset="0.5"
         style="stop-color:#ffff00;stop-opacity:1;" />
      <stop
         style="stop-color:#ffff00;stop-opacity:0.39215687;"
         offset="1"
         id="stop4466-46" />
    </linearGradient>
    <marker
       markerHeight="6"
       markerWidth="8"
       orient="auto"
       markerUnits="strokeWidth"
       refY="5"
       refX="10"
       viewBox="0 0 10 10"
       id="arrow-92">
      <polyline
         id="polyline4357-2"
         style="fill:#000000;stroke-width:0px"
         points="0,0 10,5 0,10 3,5" />
    </marker>
    <linearGradient
       id="linearGradient4462-0-8">
      <stop
         style="stop-color:#ffff00;stop-opacity:1;"
         offset="0"
         id="stop4464-5-3" />
      <stop
         id="stop4027-9-2"
         offset="0.5"
         style="stop-color:#ffff00;stop-opacity:1;" />
      <stop
         style="stop-color:#ffff00;stop-opacity:0.53435117;"
         offset="1"
         id="stop4466-46-9" />
    </linearGradient>
    <marker
       markerHeight="6"
       markerWidth="8"
       orient="auto"
       markerUnits="strokeWidth"
       refY="5"
       refX="10"
       viewBox="0 0 10 10"
       id="arrow-5">
      <polyline
         id="polyline4357-4"
         style="fill:#000000;stroke-width:0px"
         points="0,0 10,5 0,10 3,5" />
    </marker>
    <linearGradient
       inkscape:collect="always"
       xlink:href="#linearGradient6191-9"
       id="linearGradient3288-3"
       gradientUnits="userSpaceOnUse"
       x1="174.00012"
       y1="532.36218"
       x2="575.99988"
       y2="532.36218" />
    <linearGradient
       id="linearGradient6191-9">
      <stop
         style="stop-color:#ff6400;stop-opacity:1;"
         offset="0"
         id="stop6193-4" />
      <stop
         id="stop6201-9"
         offset="0.5"
         style="stop-color:#000000;stop-opacity:1;" />
      <stop
         style="stop-color:#0096ff;stop-opacity:1;"
         offset="1"
         id="stop6195-5" />
    </linearGradient>
    <linearGradient
       inkscape:collect="always"
       xlink:href="#linearGradient4462-0-8"
       id="linearGradient4310"
       x1="322.9653"
       y1="147.46243"
       x2="546.625"
       y2="147.46243"
       gradientUnits="userSpaceOnUse"
       gradientTransform="matrix(1,0,0,1.0242108,28,350.40099)" />
    <marker
       inkscape:stockid="arrowo"
       id="arrowo-2"
       viewBox="0 0 10 10"
       refX="10"
       refY="5"
       markerUnits="strokeWidth"
       orient="auto"
       markerWidth="8"
       markerHeight="6">
      <polyline
         points="0,0 10,5 0,10 3,5"
         style="fill:#646464;stroke:#646464;stroke-width:0px"
         id="polyline4908-7" />
    </marker>
    <marker
       inkscape:stockid="arrow-1w"
       id="arrow-1w-0"
       viewBox="0 0 10 10"
       refX="10"
       refY="5"
       markerUnits="strokeWidth"
       orient="auto"
       markerWidth="8"
       markerHeight="6">
      <polyline
         points="0,0 10,5 0,10 3,5"
         style="fill:#646464;stroke:#646464;stroke-width:0px"
         id="polyline4911-7" />
    </marker>
    <marker
       style="overflow:visible"
       id="Arrow1MendM"
       refX="0"
       refY="0"
       orient="auto"
       inkscape:stockid="Arrow1MendM">
      <path
         inkscape:connector-curvature="0"
         transform="matrix(-0.4,0,0,-0.4,-4,0)"
         style="fill:#ffff00;fill-rule:evenodd;stroke:#ffff00;stroke-width:1pt;marker-start:none"
         d="M 0,0 5,-5 -12.5,0 5,5 0,0 z"
         id="path5661" />
    </marker>
    <marker
       style="overflow:visible"
       id="Arrow1MendM-5"
       refX="0"
       refY="0"
       orient="auto"
       inkscape:stockid="Arrow1MendM">
      <path
         inkscape:connector-curvature="0"
         transform="matrix(-0.4,0,0,-0.4,-4,0)"
         style="fill:#ffff00;fill-rule:evenodd;stroke:#ffff00;stroke-width:1pt;marker-start:none"
         d="M 0,0 5,-5 -12.5,0 5,5 0,0 z"
         id="path5661-1" />
    </marker>
  </defs>
  <sodipodi:namedview
     id="base"
     pagecolor="#ffffff"
     bordercolor="#666666"
     borderopacity="1.0"
     inkscape:pageopacity="0.0"
     inkscape:pageshadow="2"
     inkscape:zoom="1.3184088"
     inkscape:cx="375"
     inkscape:cy="520"
     inkscape:document-units="px"
     inkscape:current-layer="layer8"
     showgrid="false"
     inkscape:window-width="1280"
     inkscape:window-height="747"
     inkscape:window-x="0"
     inkscape:window-y="25"
     inkscape:window-maximized="1"
     showguides="true"
     inkscape:guide-bbox="true" />
  <metadata
     id="metadata5245">
    <rdf:RDF>
      <cc:Work
         rdf:about="">
        <dc:format>image/svg+xml</dc:format>
        <dc:type
           rdf:resource="http://purl.org/dc/dcmitype/StillImage" />
        <dc:title></dc:title>
      </cc:Work>
    </rdf:RDF>
  </metadata>
  <g
     inkscape:groupmode="layer"
     id="layer9"
     inkscape:label="background"
     style="display:inline" />
  <g
     inkscape:label="field"
     inkscape:groupmode="layer"
     id="layer1"
     style="display:inline" />
  <g
     inkscape:groupmode="layer"
     id="layer8"
     inkscape:label="earth"
     style="display:inline">
    <g
       id="g5753">
      <rect
         inkscape:transform-center-y="66.174522"
         inkscape:transform-center-x="-16.009965"
         inkscape:export-ydpi="8.0597019"
         inkscape:export-xdpi="8.0597019"
         inkscape:export-filename="/home/jakub/Grafika/icon.png"
         ry="61.132076"
         rx="67.169807"
         y="332.8623"
         x="175.50012"
         height="398.99976"
         width="398.99976"
         id="rect3049-2"
         style="opacity:0.98999999;fill:#000000;fill-opacity:0.95686275;stroke:url(#linearGradient3288);stroke-width:3;stroke-linecap:butt;stroke-linejoin:round;stroke-miterlimit:0;stroke-opacity:1;stroke-dasharray:none;stroke-dashoffset:0;display:inline" />
      <path
         inkscape:connector-curvature="0"
         id="rect3049-2-5"
         d="M 404.46875,333.4375 C 368.33699,362.63749 345.76923,410.01584 354.25,468.5053 l 27,109.43053 c 32.26511,90.99488 123.59158,110.8748 191.875,73.96722 l 0,-255.82866 c 0,-34.68712 -29.94418,-62.63689 -67.15625,-62.63689 l -101.5,0 z"
         style="opacity:0.98999999;fill:url(#linearGradient4310);fill-opacity:1;stroke:none;display:inline" />
      <path
         id="path4367-5"
         style="fill:url(#radialGradient3309);fill-opacity:1;stroke:#000000;stroke-width:2.48458838px;marker-mid:url(#Arrow1Mstart);marker-end:none;display:inline"
         vector="yes"
         d="M 355.11437,497.43023 C 312.80447,386.55895 150.71764,429.62177 190.59063,579.70214 230.46361,729.78252 392.55044,686.7197 374.25342,569.46885"
         inkscape:connector-curvature="0" />
      <path
         id="path4363"
         vector="yes"
         d="m 324.80315,351.64669 38.27806,144.07715"
         inkscape:connector-curvature="0"
         style="fill:none;stroke:#646464;stroke-width:2.48458838px;stroke-opacity:1;marker-mid:url(#arrow);marker-end:url(#arrow)" />
      <path
         id="path4367"
         style="fill:url(#radialGradient3305);fill-opacity:1;stroke:#000000;stroke-width:2.48458838px;marker-mid:url(#arrow);marker-end:none"
         vector="yes"
         d="M 388.01879,565.40366 C 430.3287,676.27494 592.41554,633.21212 552.54255,483.13174 512.66957,333.05137 350.58273,376.11419 368.87975,493.36504"
         inkscape:connector-curvature="0" />
      <path
         id="path4369"
         vector="yes"
         d="m 394.22669,564.57262 c 34.33533,80.85525 160.40283,47.36185 128.50447,-72.70238 -31.8984,-120.06434 -157.96595,-86.57106 -147.64352,0.66375"
         inkscape:connector-curvature="0"
         style="fill:none;stroke:#000000;stroke-width:2.48458838px;marker-mid:url(#arrow);marker-end:url(#arrow)" />
      <path
         id="path4371"
         style="fill:none;stroke:#000000;stroke-width:2.48411417;stroke-miterlimit:4;stroke-dasharray:none;marker-mid:url(#arrow);marker-end:none"
         vector="yes"
         d="m 400.22989,562.97771 c 26.36072,50.83909 116.40897,26.91535 92.48515,-63.13296 -23.92378,-90.0482 -113.97201,-66.12435 -111.62417,-8.90568"
         inkscape:connector-curvature="0" />
      <path
         id="path4375"
         vector="yes"
         d="m 370.21382,570.95233 c 10.32244,87.23482 -115.74508,120.7282 -147.64347,0.66386 -31.8984,-120.06435 94.16913,-153.55763 128.50442,-72.7025"
         inkscape:connector-curvature="0"
         style="fill:none;stroke:#000000;stroke-width:2.48458838px;marker-mid:url(#arrow);marker-end:url(#arrow)" />
      <path
         id="path4377"
         style="fill:none;stroke:#000000;stroke-width:2.48458838px;marker-mid:url(#arrow);marker-end:none"
         vector="yes"
         d="m 364.21061,572.54725 c 2.34785,57.21878 -87.7004,81.14252 -111.6242,-8.90568 -23.92377,-90.0482 66.12446,-113.97206 92.48516,-63.13296"
         inkscape:connector-curvature="0" />
      <path
         id="path4381"
         d="m 345.07157,500.50861 36.01941,-9.56907 19.13905,72.03863 -36.01942,9.56907 -19.13905,-72.03864"
         inkscape:connector-curvature="0"
         style="fill:none;stroke:#000000;stroke-width:2.48458838px" />
      <text
         style="font-size:14.90752983px"
         transform="matrix(0.96647253,-0.25677002,0.25677002,0.96647253,0,0)"
         id="text4385"
         y="593.45087"
         x="216.16724">S</text>
      <text
         style="font-size:14.90752983px"
         transform="matrix(0.96647253,-0.25677002,0.25677002,0.96647253,0,0)"
         id="text4387"
         y="640.65802"
         x="216.16724">N</text>
      <path
         inkscape:export-ydpi="8.1000004"
         inkscape:export-xdpi="8.1000004"
         inkscape:export-filename="/home/jakub/Grafika/icon.png"
         inkscape:connector-curvature="0"
         d="m 398.4668,551.85789 c 18.00546,34.72522 79.51218,18.38431 63.17121,-43.12245 -16.34092,-61.50669 -77.84763,-45.16569 -76.24397,-6.08295"
         vector="yes"
         style="fill:none;stroke:#000000;stroke-width:2.48411441;stroke-miterlimit:4;stroke-dasharray:none;marker-mid:url(#arrow);marker-end:none;display:inline"
         id="path4371-4" />
      <path
         inkscape:export-ydpi="8.1000004"
         inkscape:export-xdpi="8.1000004"
         inkscape:export-filename="/home/jakub/Grafika/icon.png"
         inkscape:connector-curvature="0"
         d="m 370.35542,560.33797 c 1.77308,43.21137 -66.23093,61.27846 -84.29807,-6.72551 -18.06712,-68.00398 49.93688,-86.07118 69.84435,-47.67772"
         vector="yes"
         style="fill:none;stroke:#000000;stroke-width:2.46775842;stroke-miterlimit:4;stroke-dasharray:none;marker-mid:url(#arrow);marker-end:none;display:inline"
         id="path4377-0" />
      <path
         style="fill:none;stroke:#646464;stroke-width:2.4849999;stroke-miterlimit:4;stroke-opacity:1;stroke-dasharray:none;marker-mid:url(#arrowo);marker-end:url(#arrow-1w);display:inline"
         inkscape:connector-curvature="0"
         d="m 383.02796,568.27696 38.27805,144.0771"
         vector="yes"
         id="path4365-4-3-8" />
      <g
         inkscape:export-ydpi="8.0597019"
         inkscape:export-xdpi="8.0597019"
         inkscape:export-filename="/home/jakub/Grafika/icon.png"
         transform="matrix(0.55940719,0,0,0.55940719,304.40181,460.50668)"
         id="g4900"
         style="display:inline">
        <g
           id="layer5"
           inkscape:label="globe ombre">
          <path
             inkscape:connector-curvature="0"
             id="path1471"
             d="m 197.59992,228.78683 c -3.42938,12.6338 -18.27613,14.40339 -28.31871,17.62938 -30.29076,6.2652 -62.07308,6.25852 -92.032257,-2.07303 -9.091841,-1.66746 -28.520534,-11.82778 -16.371045,-23.12069 16.940638,-11.59161 37.788111,-12.88874 57.242932,-14.25891 23.89061,-0.43041 48.84551,0.46968 70.97012,11.33674 3.70686,2.2509 8.2659,5.29129 8.50896,10.48651 z"
             style="fill:url(#radialGradient3235);fill-opacity:1;fill-rule:evenodd;stroke:none" />
        </g>
        <g
           inkscape:label="globe"
           id="layer2-6">
          <path
             inkscape:connector-curvature="0"
             id="path5993"
             d="m 240.29317,122.00044 c 0.6218,45.10948 -28.50371,88.23822 -69.62614,105.04151 C 128.69868,245.32432 76.498789,235.015 44.721519,201.63798 13.733785,170.78748 3.6168534,120.90632 20.200327,80.199427 36.655895,37.124859 80.800379,7.3352162 126.29303,8.0002219 171.78569,7.3352162 215.93017,37.124859 232.38574,80.199427 c 5.23809,13.253331 7.91965,27.525963 7.90743,41.801013 z"
             style="fill:#054a88;fill-opacity:1;fill-rule:evenodd;stroke:#ffffff;stroke-width:0;stroke-linecap:butt;stroke-linejoin:miter;stroke-miterlimit:4;stroke-opacity:1" />
          <path
             inkscape:connector-curvature="0"
             id="path2216"
             d="m 238.01297,122.00034 c 0.64616,45.61995 -29.84806,89.0357 -72.0273,104.46347 C 123.43614,243.17419 71.524604,230.42296 41.816125,195.11284 11.607546,161.40071 5.9110586,108.30878 28.05691,68.747897 49.241146,28.471037 96.095137,4.9226201 140.52198,11.177813 c 45.90371,5.194359 86.3468,42.229592 95.22123,88.307023 1.51533,7.400014 2.27085,14.958194 2.26976,22.515504 z"
             style="opacity:0.79999994;fill:#0d91dc;fill-opacity:1;fill-rule:evenodd;stroke:#ffffff;stroke-width:0;stroke-linecap:butt;stroke-linejoin:miter;stroke-miterlimit:4;stroke-opacity:1" />
          <path
             inkscape:connector-curvature="0"
             id="path2206"
             d="m 240.29317,121.99979 c 0.6218,45.10949 -28.50371,88.23823 -69.62614,105.04151 C 128.69868,245.32368 76.498789,235.01435 44.721519,201.63734 13.733785,170.78684 3.6168534,120.90568 20.200327,80.198779 36.655895,37.124211 80.800379,7.3345682 126.29303,7.9995739 171.78569,7.3345682 215.93017,37.124211 232.38574,80.198779 c 5.23809,13.253331 7.91965,27.525961 7.90743,41.801011 z"
             style="fill:url(#radialGradient3237);fill-opacity:1;fill-rule:evenodd;stroke:#ffffff;stroke-width:0;stroke-linecap:butt;stroke-linejoin:miter;stroke-miterlimit:4;stroke-opacity:1" />
          <path
             inkscape:connector-curvature="0"
             id="path2231"
             d="m 240.29317,121.99979 c 0.6218,45.10949 -28.50371,88.23823 -69.62614,105.04151 C 128.69868,245.32368 76.498789,235.01435 44.721519,201.63734 13.733785,170.78684 3.6168534,120.90568 20.200327,80.198779 36.655895,37.124211 80.800379,7.3345682 126.29303,7.9995739 171.78569,7.3345682 215.93017,37.124211 232.38574,80.198779 c 5.23809,13.253331 7.91965,27.525961 7.90743,41.801011 z"
             style="fill:url(#radialGradient3239);fill-opacity:1;fill-rule:evenodd;stroke:#ffffff;stroke-width:0;stroke-linecap:butt;stroke-linejoin:miter;stroke-miterlimit:4;stroke-opacity:1" />
        </g>
        <g
           id="layer4"
           inkscape:label="carte ombre">
          <path
             inkscape:connector-curvature="0"
             id="path2213"
             d="M 127,8 C 81.693093,7.3631559 38.075931,36.84279 21.42976,78.922141 5.9461777,115.99732 12.185706,161.05473 37.4375,192.375 c 4.220632,-11.28058 1.453399,-26.00225 -4.175193,-36.80099 -7.761191,-13.44782 -9.693975,-28.86316 -10.765314,-44.0422 1.904883,-9.44411 5.073413,-19.008064 6.713046,-29.04812 5.433079,-5.624767 6.491553,-21.83527 16.615695,-10.475711 13.882971,9.960902 16.237012,-20.069414 28.386291,-8.138208 5.451828,0.156386 9.007586,-5.299903 10.192258,2.300323 9.615637,4.266113 -11.607214,11.768093 -4.560533,21.704906 -2.508139,5.419923 -9.670235,10.254981 -10.99284,17.81761 -5.531702,-2.46764 0.03289,-14.883058 -9.463654,-17.38793 -11.179951,-7.728423 -17.289183,7.639693 -9.230963,15.08157 9.941322,6.34667 2.406565,18.0902 0.391614,25.87491 -17.529911,-8.4342 -18.565842,19.11263 -5.419058,23.48482 3.212953,13.47516 13.008461,27.20709 27.741631,28.87758 12.616559,-1.91076 12.966494,11.70191 22.373822,17.48019 0.199246,11.54927 1.51796,24.00018 12.059288,31.70363 8.34892,8.5224 22.66669,4.45088 33.63391,4.25512 9.5821,-2.86912 12.90292,-15.30943 22.17552,-8.28515 11.02306,-0.91394 16.06038,-11.91299 27.18071,-12.21072 8.67841,-11.06472 -6.03135,-16.82772 -12.65536,-22.68092 -4.41898,-1.11711 -12.18408,4.57469 -5.02483,-2.25382 6.72932,-6.37973 11.99111,-14.37219 14.82396,-23.22564 9.60316,-4.77679 2.08977,-15.64992 9.64801,-22.32088 2.185,-13.61185 10.70578,8.84298 16.72795,11.58871 9.07182,8.60749 16.27733,-7.79821 22.81154,-2.73658 C 249.51605,110.07545 233.57228,60.759896 198.44004,33.177286 178.41405,16.942796 152.78252,7.9024232 127,8 z m 5.21875,14.15625 c 5.42765,1.788873 14.47794,2.916445 4.01231,3.660803 -2.82849,9.512205 -17.13867,10.678211 -14.54475,-1.940362 2.87379,-2.700795 7.13212,-0.38655 10.53244,-1.720441 z M 115.3125,50.3125 c 1.10025,4.956725 -15.2632,14.701525 -6.34588,4.12779 1.99166,-1.566036 4.35023,-2.568919 6.34588,-4.12779 z"
             style="opacity:0.09999982;fill:url(#radialGradient3241);fill-opacity:1;stroke:#000000;stroke-width:0.19408301;stroke-miterlimit:4;stroke-dasharray:none" />
          <path
             inkscape:connector-curvature="0"
             id="path2197"
             d="M 127,8 C 78.356689,7.1993207 32.057942,41.469404 18.222159,88.036698 13.779485,92.481017 17.420717,107.71975 22.00461,97.573129 20.429423,86.266233 25.637374,79.686657 30.422959,70.594163 25.407609,65.025178 42.723837,58.808561 46.264064,66.668934 57.412066,74.689449 62.267535,52.250418 71.34079,47.870961 c -6.871037,8.86041 4.541371,15.255224 11.313806,8.117851 6.35173,-1.168181 3.976116,13.643017 13.814154,9.292438 -3.845429,9.155997 -19.059955,15.552334 -9.747963,27.216921 0.475607,5.345534 -12.877172,0.658126 -10.854279,10.183329 -4.029079,6.14875 -0.483047,13.81276 -9.772758,15.4435 8.428802,-7.16591 -10.109155,-13.67331 -5.604694,-1.6648 9.818954,4.62146 -10.750633,1.18188 -1.774708,10.41689 -7.217079,3.0646 -6.131232,24.5881 -9.491319,9.34479 -10.855787,-15.20302 -11.502038,18.44005 1.246408,8.3838 -3.012171,10.4268 5.221201,21.72441 12.845252,28.91818 7.754467,7.48429 28.868798,-1.57382 26.060311,14.03864 11.47967,4.71208 12.97979,16.35026 11.44154,26.42803 5.13217,8.9986 12.57195,21.77957 24.60164,19.62458 12.77543,0.35487 24.12505,-7.40757 29.85909,-18.06421 6.91581,-5.62979 0.64242,10.33739 9.83872,6.43641 9.17965,-0.1025 9.6,-16.21558 18.02686,-9.64602 9.31577,0.0418 4.12795,-12.53689 -2.89457,-7.64555 2.36717,-11.43213 -10.08546,-8.55404 -13.99206,-1.676 -9.81929,-3.68835 2.83065,-17.30967 8.29604,-22.39983 7.10545,-6.39713 6.2642,-17.76259 13.97573,-21.41124 -7.98177,-8.39862 9.13675,-14.34258 4.56576,-25.23992 10.25729,-4.25963 15.73805,8.93727 20.85272,15.78551 8.25701,9.45634 19.43101,-3.41898 10.64335,-11.58073 -1.50231,-5.76159 3.77176,-26.5993 2.79891,-10.43515 -0.16275,6.25764 8.74862,-0.14127 3.89519,8.07186 -1.21803,5.99585 8.10193,18.9016 7.8604,6.2645 C 247.85976,97.656911 226.47166,49.008317 187.59375,25.84375 169.9972,14.009967 148.25788,8.0476945 127,8 z m 8.5625,8.90625 c 5.26666,3.201694 15.2303,3.78475 11.56673,13.02024 -6.10478,0.01412 -9.98976,-0.859821 -10.03915,5.60245 -6.61923,2.555341 -17.34996,7.894831 -18.76465,-3.816353 -3.72222,-6.347004 -3.57174,-17.453052 6.76102,-13.353795 3.52748,-0.194201 6.9905,-0.928715 10.47605,-1.452542 z m 7.9375,22.0625 c 1.89784,0.922034 -1.8284,1.340184 0,0 z m -25.46875,3.8125 c -1.09325,12.479339 12.46714,8.853744 15.85496,2.30079 6.52545,-2.748934 6.18602,8.233757 4.0163,10.208738 -9.38345,-7.240418 -20.51921,-0.515529 -26.65985,7.582761 -7.73978,12.75701 -15.715167,-11.927207 -4.26054,-12.459582 3.69457,-2.508263 7.0713,-5.598522 11.04913,-7.632707 z M 104,78.34375 c 4.49033,0.854557 -1.70613,6.500104 0,0 z m -53.0625,12.875 c -2.217542,8.027462 12.356362,20.93579 10.634991,6.278106 C 59.989041,92.698198 55.365336,91.467913 50.9375,91.21875 z m -35.90625,9.625 c -5.9887096,30.30485 1.368388,62.83914 19.59375,87.75 -1.778713,-11.31877 0.704493,-23.61057 -6.732484,-33.73971 -8.341505,-13.08953 -9.14949,-29.10415 -9.968867,-44.1842 -0.653566,-2.96981 0.337856,-8.30618 -2.892399,-9.82609 z m 61,10.28125 c 2.216733,0.21043 -1.818967,2.2504 0,0 z M 118.25,119.25 c 8.46123,5.1313 -8.71244,10.2439 -1.40045,1.82274 L 118.25,119.25 z m 19.09375,5.625 c 1.66268,3.47801 -6.56707,-0.95212 0,0 z"
             style="opacity:0.19999982;fill:url(#radialGradient3243);fill-opacity:1;stroke:#000000;stroke-width:0.19408301;stroke-miterlimit:4;stroke-dasharray:none" />
          <path
             inkscape:connector-curvature="0"
             id="path2181"
             d="M 127,8 C 87.189129,7.7586659 48.340384,30.023993 28.625,64.65625 c 8.006988,-6.630648 16.391777,-3.418747 22.779051,2.835196 8.194223,-7.587489 13.11293,-19.465178 23.850099,-24.384627 13.05677,-4.763497 -14.729228,13.913628 0.54639,13.89861 9.868774,-7.388339 23.846599,0.779548 32.30638,-9.620562 7.26881,-4.789579 15.4529,-9.677909 6.57191,-17.868497 0.65197,-6.242797 -5.22897,-15.653715 6.72742,-13.17262 10.43386,-2.180689 17.71146,-0.319942 27.50648,3.322044 -1.56084,3.593133 0.68327,10.252443 6.88995,9.406109 -3.12832,5.244705 -23.38048,0.141486 -11.62406,8.24873 8.7197,0.505807 3.98054,21.636396 2.89291,8.247306 3.05288,-6.985979 -8.78962,-1.126208 -6.17951,-8.031659 -9.70685,-4.928288 -11.89866,11.271199 -1.01423,5.133892 1.98113,1.306393 1.52188,10.869941 0.98785,14.205004 -8.12152,-0.602026 -17.86688,-6.355214 -24.52406,3.408445 -6.15233,6.202895 -13.60045,12.071712 -9.19293,21.563108 -10.046606,6.258953 -2.18766,-9.485481 -1.74299,-13.051587 -7.114854,3.030066 -1.79363,-1.531519 -5.05996,-4.496173 C 98.403691,73.19516 79.140675,78.958856 88.5,89.9375 c 0.854693,4.868075 3.725585,11.76674 -4.044842,6.759315 -7.503409,0.252176 -11.321238,14.396985 -7.008431,18.075185 -6.884582,4.21801 -8.426716,8.79949 -7.639871,4.04079 -4.691484,3.21672 -15.002291,0.74756 -8.787147,8.99686 -8.778828,8.39212 -12.403438,24.15518 -4.822948,34.3076 5.107442,11.38393 17.909145,14.58175 29.398433,13.68464 2.60526,2.323 9.696359,4.9795 9.162052,7.48264 -10.792017,1.88467 5.802764,6.66006 6.289194,12.54309 6.67308,8.28784 -4.012678,18.68618 7.1317,25.9469 5.55232,11.0026 17.55963,11.79924 28.15375,8.17721 11.33344,-3.04326 13.34505,-14.39478 23.16546,-19.14906 5.52704,-7.95563 -3.44663,-20.48943 8.71735,-26.07432 10.00484,-6.66711 10.76732,-22.32167 18.28321,-27.30752 -3.79889,-4.82268 -16.7465,6.75275 -6.37268,-1.78843 6.96604,-5.37613 13.61375,-15.50845 10.37477,-22.60115 9.92394,-7.24762 19.63421,4.55872 23.19885,13.37574 5.72601,10.25686 17.65945,1.21877 9.19757,-7.04737 -1.77174,-6.65385 1.03817,-21.99527 4.85538,-22.94732 2.91167,5.97347 -0.94214,13.8312 7.09075,11.95097 -2.33997,5.76768 -1.95435,14.11902 3.4387,18.19923 2.93342,-14.35955 2.39737,-26.24584 1.50491,-40.26502 C 235.82007,93.191724 234.40061,78.632153 226.59375,66.59375 221.35962,58.175979 214.4791,48.276202 205.40524,39.830025 199.46301,31.058464 188.77377,28.774905 180.38249,25.001695 192.5219,25.5976 171.86232,17.251207 168.07311,15.744267 156.07898,12.52878 143.89156,10.392859 131.57456,8.218242 130.05158,8.1145865 128.52763,7.9996009 127,8 z M 75.3125,30.0625 c -9.151996,8.088034 -4.346672,1.289406 0,0 z m 21.875,1.03125 c -0.420842,6.369978 -20.482996,11.785727 -6.23555,4.409336 2.016361,-1.553463 4.043842,-3.106231 6.23555,-4.409336 z m 28.78125,9.375 c -11.4409,-1.05572 -3.60148,15.381628 3.65625,6.96875 -1.39497,-3.229133 3.26923,-8.255631 -3.65625,-6.96875 z M 92.9375,53.9375 c -15.332176,4.808457 9.57599,16.813982 7.03125,2.90625 C 97.242672,56.704236 95.778445,53.597466 92.9375,53.9375 z M 27.15625,68.28125 C 22.548215,70.66554 20.931788,84.826914 25.75,75.5 c 0.207873,-2.214635 5.34489,-5.645765 1.40625,-7.21875 z m -6.5625,13.125 C 18.270901,85.413337 14.429297,99.700425 19.960033,97.617413 19.816584,92.18374 21.973788,86.741833 20.59375,81.40625 z m -1.21875,3.875 c 2.411126,-0.724448 -0.580426,2.689213 0,0 z m 33.90625,8.375 c -0.804634,7.27657 10.678584,12.58363 5.315922,2.511519 C 57.298927,94.627684 55.334868,93.558607 53.28125,93.65625 z M 14.6875,103.0625 C 9.5255089,131.83608 16.365243,162.43558 33,186.4375 29.444123,175.27674 34.230307,163.81937 25.113272,154.1301 18.384997,143.73321 18.287446,131.0655 16.094315,119.26792 15.735876,113.8267 16.785203,108.299 14.6875,103.0625 z m 123.0625,0.65625 c 1.31622,2.87584 16.74801,1.83155 7.95755,2.75597 -3.53172,-1.79345 -13.62985,4.65073 -7.95755,-2.75597 z m -38.3125,2.84375 c 10.50168,1.23825 -6.312432,14.69663 -6.375,5.1875 2.557185,4.98547 10.22234,-1.77281 5.60098,-4.1602 l 0.77402,-1.0273 z m 68.125,2.59375 c 1.63216,1.04439 1.1002,3.24259 0,0 z m -59.5,1.09375 c 9.18673,2.78437 -4.77484,8.02587 0,0 z m -44.4375,0.59375 c -7.572668,8.49694 8.943498,6.87366 0,0 z m 55.9375,4.78125 c 1.00735,8.09222 12.84488,14.04473 17.4679,6.52817 4.6465,2.85264 9.91057,5.09428 0.75761,5.63215 -7.31246,1.70414 -15.32213,-6.01529 -21.27218,0.78949 -5.49882,-2.13338 -11.37781,-11.19063 -3.64255,-5.11176 2.21964,-2.62634 3.08521,-6.59294 6.68922,-7.83805 z m 110.15625,0.6875 c 1.74114,0.70011 -1.37555,1.51047 0,0 z m 2.0625,4.1875 c 3.09677,3.35572 -0.01,4.41025 0,0 z M 44.5625,133.75 c -8.811274,5.12979 8.093222,17.24436 3.53125,4.625 -1.661117,-1.17281 -1.656556,-3.69218 -3.53125,-4.625 z m 111.84375,18.65625 c 2.99885,2.91914 2.19154,3.281 0,0 z M 175.34375,198 c -6.41091,5.12379 -18.97967,13.5672 -12.58826,21.89307 7.81798,0.90385 21.45033,-16.75047 12.58826,-21.89307 z m 7.6875,7.6875 c -10.86812,7.74752 12.24995,4.43125 0,0 z"
             style="opacity:0.29999988;fill:url(#radialGradient3245);fill-opacity:1;stroke:#000000;stroke-width:2px" />
          <path
             inkscape:connector-curvature="0"
             id="path2205"
             d="m 127.59375,9.21875 c -39.035023,-0.099663 -78.896388,20.266147 -98.25,54.71875 5.619136,-3.29754 14.725139,-10.451217 15.567613,-2.69844 6.201187,-0.584449 2.743383,0.72345 5.394793,4.622771 7.676533,-6.137518 12.72156,-16.922304 21.807231,-22.850247 11.109076,0.03335 18.475081,-13.441152 28.102083,-12.339254 -6.405792,10.782978 -23.517917,9.721042 -27.598227,22.725471 1.927291,5.933947 13.755747,-5.274312 20.244229,-1.065268 9.620858,0.06017 19.211598,-9.145308 24.164878,-15.048556 -4.58984,-5.933334 -4.64935,-13.950091 -6.34896,-19.010442 -0.15517,-5.351415 17.67552,-1.923356 24.17286,-4.530625 6.92438,-4.9687329 -1.16456,-4.2688326 -7.2565,-4.52416 z M 138.6875,10.75 c -6.0278,7.705343 14.92352,3.802979 15.27534,13.573856 -9.54215,-5.072847 -0.79728,5.995067 4.02156,3.242552 2.12369,8.72539 -13.68414,2.379819 -15.53201,7.324843 4.24558,3.59763 10.11994,-1.212485 9.42261,6.358749 -6.77961,-5.143227 3.83878,4.438815 -2.39731,5.276254 7.16867,9.090535 -8.17791,5.97824 -3.27039,-2.363558 -6.14486,-5.330801 -6.23305,14.325659 1.88189,11.355273 -7.68473,0.746728 -7.15558,8.061176 -14.57461,1.509273 -11.18308,-6.072474 -16.38532,6.977328 -23.17083,11.191508 -6.8601,6.576808 3.86808,15.245679 -8.80407,18.481418 -0.40898,-7.269372 0.3467,-21.548312 -7.94593,-10.762668 -7.263726,2.310498 -7.98323,10.570241 -2.753145,10.586222 -6.771319,2.555789 5.62458,2.755816 -1.278105,5.070028 5.828913,9.43135 -1.621591,8.85788 -8.096939,6.602316 -2.867785,4.888874 -7.573059,12.689644 -1.875325,16.331654 -5.008006,2.26997 -13.684917,14.82241 -12.816715,7.00443 -5.410052,6.62173 -12.222018,13.7319 -13.252629,25.87471 -0.829495,10.77944 7.661795,24.56133 19.368456,25.95687 9.19919,1.49501 16.880317,1.58523 23.490545,7.70718 3.103218,1.68315 -2.978618,9.73237 4.284377,12.39339 10.55591,8.42613 -3.753266,19.51305 8.30448,27.2232 5.41093,11.29403 18.79659,11.82728 29.16809,7.05947 10.28291,-4.44214 11.90404,-14.55026 21.81901,-19.32996 -1.88018,-10.76325 -0.012,-20.81375 9.96074,-27.42058 4.24106,-4.03829 15.63411,-20.60467 6.14591,-20.59018 -4.6126,3.94402 -15.51212,5.22088 -4.8125,-0.0312 7.30843,-4.89855 24.70525,-17.28587 15.90155,-26.22444 -7.88523,-1.68199 8.20987,-2.58466 9.82192,-5.51563 10.24438,3.04211 14.27159,11.05979 19.83903,19.95882 5.31319,1.77543 10.63798,0.0501 5.40625,-6.59375 -3.13891,-8.87862 -0.0344,-22.77231 4.86443,-28.41896 3.16671,6.96266 7.36394,3.64875 7.88557,12.63771 4.37821,5.65985 -4.48169,14.20845 3.81245,18.0625 4.06761,-8.33159 -0.92923,-19.87813 -0.83037,-25.47754 6.08953,-3.57794 -2.87168,-17.85545 -2.82887,-25.505676 -1.39028,-12.134061 -5.98007,-24.300646 -15.3155,-32.02802 5.03136,-4.71681 -6.89588,-12.498316 -9.94169,-14.286649 C 203.08608,38.505063 194.9671,28.020061 183.29416,29.14827 178.74849,25.586444 170.34428,21.661413 180.9152,23.322399 172.39969,16.622013 163.79553,16.649858 153.9309,13.479566 148.82858,12.0411 143.64396,12.932169 138.6875,10.75 z M 63.125,125.3125 c 2.164448,-5.93275 -8.104854,-2.80808 0,0 z M 144.75,15.15625 c 0.62959,1.141133 -1.86684,0.327736 0,0 z m -40.125,6.0625 c -2.98802,4.508738 -4.814768,1.286263 0,0 z m 2.6875,2.0625 c 5.65843,0.340421 -2.59025,1.02409 0,0 z M 78.5,28.4375 C 78.013848,33.780471 57.839502,40.505489 69.661281,32.054123 72.081722,30.01414 75.075397,27.488118 78.5,28.4375 z m 5.125,3 c -2.142018,4.192812 -5.054343,-1.073302 0,0 z m -8.28125,1.28125 c 2.198081,0.548812 -0.579142,1.650298 0,0 z m 2.6875,0.46875 c -4.475704,6.975776 -3.795361,0.915158 0,0 z m -15.125,4.6875 c 1.264703,0.131673 0.05367,1.230929 0,0 z m 74.28125,0.46875 c -13.04462,5.112205 8.28847,4.974292 0,0 z m -65.03125,1.75 c -0.891501,3.38337 -6.26841,2.759169 0,0 z m 2.78125,0.125 c 0.781169,0.329816 -1.04169,0.614124 0,0 z m 51.375,1.5 c -12.33743,1.267639 2.48216,12.20729 1.9997,0.559918 L 127.67256,41.862701 126.3125,41.71875 z M 93.1875,55.125 c -12.881468,9.46 15.35075,7.165458 1.524949,1.127359 L 94.342279,55.466823 93.1875,55.125 z m -42.09375,0.46875 c 8.68707,2.331298 -8.428564,5.345366 0,0 z m 164.625,1.96875 c 1.80979,0.04454 -0.64038,2.831939 0,0 z M 99.375,65.78125 c -4.489482,6.04348 4.14228,2.912955 0,0 z m 5.15625,4.4375 c -5.497641,-0.32767 -1.21303,6.41662 0,0 z M 25.5,70.3125 c -4.852917,6.966773 1.233596,4.406824 0.900653,9.1e-5 L 25.5,70.3125 z m 97.59375,0.375 c 1.31751,4.617655 -3.84696,1.799841 0,0 z M 22.875,75.71875 c -3.920574,4.336396 4.910714,0.411862 0,0 z m 99.46875,1.5625 c 6.49376,0.631472 -7.74438,10.809661 -2.42803,4.530916 1.91212,-0.202134 3.345,-2.906227 2.42803,-4.530916 z M 19.5,84.34375 c -3.535546,5.283859 -0.888446,17.1542 0.0625,4.71875 0.09126,-1.50348 0.737469,-3.32397 -0.0625,-4.71875 z m -0.9375,5.71875 c 1.068257,-0.213978 -0.337318,1.54431 0,0 z m 37.09375,5.3125 c -2.679295,4.97323 4.990804,2.911107 0,0 z m 3,3.375 c -5.228552,2.18919 2.440344,4.73196 0,0 z m 102.4375,0.96875 c 7.76166,-0.567728 10.91959,19.26584 5.6216,9.23529 2.61065,-4.44733 -7.07021,-4.60796 -5.6216,-9.23529 z m -23.8125,1.875 c 2.10276,5.65039 13.91146,-0.969 13.3125,6.5312 -6.11907,-3.31936 -22.50325,7.06828 -13.3125,-6.5312 z m -31.46875,2.875 c -6.557264,3.79809 -0.43122,15.98059 0.64865,5.03103 3.13257,-3.56954 10.83507,8.3735 1.41409,6.10895 1.80664,5.05194 5.27712,8.3545 8.18573,1.07157 5.26366,-8.3363 9.66213,15.47278 17.78329,5.13371 4.30639,-2.47493 7.51571,-0.63466 7.71722,2.13657 5.33889,-7.19238 4.98162,2.72982 0.58951,4.98624 -8.67202,3.06582 -19.4076,-6.37893 -24.86889,1.49706 -5.4733,-4.15618 -13.16707,-5.28418 -9.87585,-13.74638 -6.6487,-3.0014 -19.5684,0.40989 -22.75,-1.6875 7.976104,-0.95057 11.539916,-11.09899 21.15625,-10.53125 z m 6.875,0.0625 c 2.33204,3.04167 10.59396,9.25161 2.83891,3.57399 l -1.66973,-1.56497 -1.16918,-2.00902 z m -98.59375,2.4375 c -3.831679,26.56186 2.561198,54.3279 17.1875,76.78125 -2.397981,-10.98811 0.172875,-21.72993 -8.745809,-31.06482 -4.717083,-9.68136 -5.817711,-20.57239 -7.647485,-30.99787 -0.228723,-4.90525 0.286631,-9.88287 -0.794206,-14.71856 z m 81.375,2.4375 c -3.986628,5.55418 8.00393,-0.40959 0,0 z m -31.21875,3.625 c -4.937938,2.59244 2.675236,4.55276 0,0 z m 63.6875,0.59375 c 4.66621,2.3001 -1.04121,2.49726 0,0 z m -1,5.5625 c 6.3195,2.23372 -2.94619,4.28385 0,0 z m 4.40625,0.0312 c 1.47477,2.40299 -2.46962,3.42197 -5e-5,0 l 5e-5,0 z m 99.3125,2.65625 c -2.8883,6.83663 4.89234,6.49626 0,0 z m -60.40625,7.7188 c 4.31865,1.84208 13.27063,5.6956 5.91164,4.48913 -1.33075,-1.59199 -6.50271,-2.10368 -5.91164,-4.48913 z m -125.8125,5.9375 c -3.142263,6.56241 6.498176,8.86258 1.009936,1.40928 L 44.4375,135.53125 z m 2.90625,5.375 c -0.263162,0.31124 0.328609,0.074 0,0 z M 146.625,138.1875 c 4.99082,6.36641 14.12556,15.62795 15.18274,21.66595 -7.52995,-5.68287 -10.54318,-14.03234 -15.18274,-21.66595 z m 37.375,18.5 c -7.46373,1.44769 3.15106,4.28452 0,0 z m -91.28125,27.46875 c -3.406411,4.32592 5.952827,-0.70882 0,0 z m 52.4375,4.53125 c 2.74608,-0.80039 -2.75434,2.63545 0,0 z m 30.0625,10.90625 c -5.33441,4.21128 -18.79463,13.77887 -10.45719,19.18043 5.06572,-1.55827 16.56993,-15.14705 10.45719,-19.18043 z m 7.625,7.9375 c -3.24183,4.36688 5.9451,-0.76899 0,0 z"
             style="opacity:0.29999988;fill:url(#radialGradient3247);fill-opacity:1;stroke:#000000;stroke-width:2px" />
        </g>
        <g
           inkscape:label="lignes"
           id="layer7" />
        <g
           inkscape:label="carte"
           id="layer3">
          <path
             inkscape:connector-curvature="0"
             id="path3298"
             d="m 117.86146,230.70857 c -5.72025,-4.84665 -9.92593,-10.91011 -14.02024,-16.79306 0.0315,-6.83 4.3602,-13.84345 -2.8416,-20.40102 -7.548138,-2.9393 -1.805745,-9.72944 -3.899975,-13.05462 -0.813392,-1.43369 -7.800036,-1.93005 -10.238621,-6.68604 -11.559904,0.73129 -23.835841,-1.23747 -30.161311,-12.10454 -3.771182,-6.66007 -5.092789,-13.83516 -2.338727,-21.14637 0.555019,1.09886 2.569531,-13.08942 9.366404,-14.79665 6.143851,-3.05192 11.80014,-8.36545 15.799628,-14.06964 -6.317114,-1.55274 -0.634392,-17.270803 5.359029,-13.858301 8.070034,5.606631 6.862545,-4.66557 4.792654,-8.682137 2.627885,-0.527027 14.291539,-1.463755 3.245494,-2.249984 -8.501116,0.890502 2.105714,-5.119759 2.185608,-8.029613 -0.983711,-0.158623 -10.367734,7.604917 -8.140232,1.179255 0.411124,-4.157366 9.075956,-4.123468 6.516601,-6.568174 1.566113,-3.370606 8.941968,-3.989867 6.168325,-0.08159 -1.29723,4.036574 -1.354186,18.971864 4.611653,9.640805 5.03605,0.167738 5.71167,-6.947855 8.5779,-8.254374 -10.7977,2.912625 -3.13254,-11.130843 3.03436,-12.589593 4.40286,-3.911337 -0.36013,-3.211639 6.50489,-7.08365 5.50725,-7.064088 19.06009,7.427185 19.06735,2.562315 -1.9716,-1.576734 15.2979,-5.541722 4.08468,-6.152238 -8.12311,-1.579676 1.34005,-19.265619 -0.3767,-5.708907 -1.71265,6.36778 14.05638,6.81149 6.15573,0.470795 -1.51804,-6.789079 5.48608,-0.83769 1.1914,-9.77775 -0.89498,-6.415902 -2.8461,-2.705041 -9.16112,-4.730452 3.74204,-2.179304 12.54806,-0.752153 15.72572,-3.461776 -4.1586,-1.618159 5.40052,-4.869087 -3.03562,-5.700085 -5.83239,4.032496 -7.966,-7.134391 -1.96028,-0.312077 4.103,-7.091257 -8.83834,-8.834237 -14.13725,-12.016565 -6.77946,-4.4883458 8.76205,0.383184 12.06473,0.01064 10.36336,2.207933 19.09861,5.39824 25.28754,11.984039 4.01096,2.230338 14.83753,11.70355 9.1001,3.78108 4.57656,1.394227 14.66659,6.271648 13.02752,7.43485 6.14935,4.649729 10.87934,13.056272 17.7087,17.954031 7.75415,9.257602 0.83596,3.244815 -1.58033,2.405661 -0.60077,6.512586 3.50897,-0.564453 5.32878,7.285139 6.64345,4.314759 12.41006,14.154396 12.65168,21.190055 0.2815,3.688463 5.42758,21.729251 0.87657,11.002679 0.85083,7.081162 9.79135,18.271262 4.87123,23.550492 -6.07541,-3.66403 2.64836,11.21765 2.0779,14.70502 0.81377,5.03891 -1.76052,17.79871 -4.74796,6.12626 -0.14606,-2.54918 -0.63535,-5.92661 2.53513,-6.36099 -2.52949,-3.46627 -4.39317,-19.73098 -6.19371,-16.3357 -1.17463,6.91779 -7.09117,-12.49102 -8.70872,0.53511 -3.30054,10.92806 -4.67919,22.06424 -0.0384,32.04711 -3.28728,3.79642 -1.91924,-7.07985 -5.30458,0.0757 -6.44096,-8.05509 -9.44463,-17.47929 -19.93701,-20.06216 -4.3558,-2.36023 -10.97041,5.5498 -15.91898,3.07494 3.15393,3.60797 9.84485,5.33446 5.01405,11.69836 -2.57052,6.56073 -8.96886,10.61813 -14.27191,15.40187 -4.892,5.50711 -11.55782,5.38026 -11.89072,-2.88501 -6.48973,-5.71426 -9.2241,-13.89493 -15.92856,-19.13772 1.14842,7.20614 7.77394,14.35404 11.004,20.94904 3.11699,-1.1933 8.63969,13.81787 15.29686,6.31385 12.64693,-9.12397 5.0833,9.20667 0.49506,14.07949 -4.32975,6.72776 -16.35081,12.17852 -13.75525,20.44939 -1.70171,3.63477 3.7579,9.09516 -0.77119,12.47281 -11.3439,4.32502 -11.12817,15.80351 -23.46266,19.44004 -5.43736,1.70958 -11.28517,1.24129 -16.90559,1.26998 z m 30.20734,-26.257 c -1.60185,1.55057 0.63491,4.74731 0,0 z m -8.15869,-5.37827 c -1.71271,-1.95832 -1.34834,0.99158 0,0 z m 5.55295,-8.89757 c 5.73544,-6.54073 -7.10867,1.94482 0,0 z m 93.40154,-51.33306 c -1.09696,-0.079 1.18142,3.78662 0,0 z m -0.36107,-1.2066 c -0.37893,-1.97873 -0.87886,2.01701 0,0 z m -60.0745,-2.83477 c 1.68822,0.70227 7.68539,-9.39486 1.09386,-3.61062 -5.22503,0.86941 -12.19721,-8.92707 -9.18745,-0.83285 3.74387,4.80494 4.40064,1.32999 6.40226,5.97593 0.75609,-0.17326 1.57952,-0.69002 1.69133,-1.53246 z m -58.93082,-5.82908 c 5.04528,-6.88687 15.49721,3.99856 23.12922,-0.56586 5.38279,-1.78227 4.84589,-13.8445 -2.26175,-9.54881 -4.70163,-1.02532 -7.51879,2.45552 -10.08383,-2.38797 0.3814,-3.05536 -1.89519,-8.39392 -4.61754,-3.7375 4.53761,1.30567 5.58583,9.86632 1.31461,4.07715 -3.25488,6.31441 -6.90234,-3.37901 -7.61668,-7.45779 -2.31934,-3.69774 -12.86451,-14.461313 -6.32247,-3.28105 3.67667,1.54 7.70257,7.3991 2.95871,5.70503 1.68652,6.47782 -10.16284,7.24528 -6.2701,2.26952 10.36268,0.24318 -4.61515,-8.43335 -4.73933,-12.06666 -8.098153,-0.22847 -12.310366,5.24132 -17.975807,10.63543 -11.088356,-0.64996 -0.772271,5.16386 4.326331,1.82507 6.646004,-0.54229 20.579586,0.36982 12.991576,7.82106 3.69001,0.96964 12.3076,11.09106 15.16706,6.71238 z m 7.58348,-7.20268 c -3.64613,-2.67811 8.94391,1.11129 0,0 z m 13.5987,-0.13451 c 3.5826,-4.85796 4.79194,1.06469 0,0 z m -8.99722,-0.93476 c 0.93432,-1.94435 0.30629,2.01043 0,0 z m -20.65782,-1.34718 c 0.50695,-1.37191 0.91652,1.36735 0,0 z m -8.13332,-7.19105 c -0.32548,-4.99212 4.00524,-11.42349 2.36302,-1.94404 0.44853,1.67407 -1.23397,2.22837 -2.36302,1.94404 z m -8.60731,-2.41128 c -0.26069,-3.77199 3.29054,1.24613 0,0 z m 2.105658,-0.76741 c 0.859143,-1.29723 1.095301,0.72255 0,0 z m 32.009162,7.56474 c -1.43826,-0.53856 1.11226,2.68976 0,0 z m 42.82914,-5.37424 c 0.73132,-4.81894 -7.5579,-17.087957 -10.99463,-12.881221 2.17152,5.825781 8.03241,6.582101 6.63519,12.528881 1.38018,0.43106 2.94057,1.40147 4.35944,0.35234 z m -37.09548,-1.05851 c -2.08268,-1.79582 -0.5471,1.60142 0,0 z m 4.91865,-2.45836 c 3.50309,-2.00553 19.70564,1.50964 10.09919,-4.85941 -5.31577,-2.19152 -9.25603,-0.62644 -12.6674,-3.468379 -2.67784,3.447419 -5.97711,12.393769 2.56821,8.327789 z m 6.75649,-8.84943 c -1.1669,-3.386147 -3.89849,2.43756 0,-1e-6 l 0,1e-6 z m -28.0659,-16.225205 c 6.47921,2.666225 11.63716,-15.530768 2.62403,-7.332068 -0.05,5.801927 -11.2653,7.741061 -2.62403,7.332068 z m 2.52853,-4.655729 c 1.57213,-4.068732 1.09096,1.208878 0,0 z m -6.95924,1.034589 c 1.00051,-4.081333 -2.07628,1.507406 0,0 z m 13.7517,-1.375294 c -0.26529,-3.714059 -2.91216,1.429387 0,0 z m 15.15749,-2.85918 c -1.50996,-2.941874 -1.07923,2.204894 0,0 z M 130.8063,72.971939 c 0.38983,-2.095995 -1.65397,2.166952 0,0 z m -7.35665,-1.880189 c 2.70965,-10.107469 -7.43553,2.551792 0,0 l 0,0 z m 11.83891,0.354094 c -2.95599,-4.554843 -1.93038,2.4932 0,0 z m -9.41003,-6.217708 c 4.27125,-5.800426 -5.53477,3.073498 0,0 z m 11.91336,-0.916594 c -2.53437,-1.402538 0.0448,1.098135 0,0 z m 1.92568,-2.077102 c -4.47652,-3.629343 -5.26581,3.217909 0,0 z m 75.45858,-7.117012 c -0.57572,-2.60348 -1.18174,0.890833 0,0 z M 153.4375,43.80888 c -1.18354,-0.937958 1.14728,2.066513 0,0 z m 45.01242,-10.820023 c -2.60577,-3.036059 -0.57235,0.408407 0,0 z M 170.72054,17.173183 c -6.18974,-3.090763 -5.85403,-0.105324 0,0 z M 162.89652,218.7453 c -1.11759,-8.08444 8.36552,-16.08091 13.82633,-16.86531 -0.45443,5.72497 -6.55371,17.15628 -13.82633,16.86531 z m 20.53333,-9.6864 c 0.85873,-1.29638 1.09565,0.72137 0,0 z M 92.15394,185.19455 c 0.859858,-1.29732 1.094727,0.7233 0,0 z M 27.565086,181.80391 C 14.215324,159.39449 7.6710605,132.11958 12.112182,106.25289 c -0.227005,11.0874 1.276223,21.94265 3.617026,32.80975 0.831471,11.26609 10.050338,19.34467 12.752481,29.80149 -3.763156,4.318 0.246958,11.87 0.127895,14.50293 l -1.044498,-1.56315 0,0 z M 183.04472,157.45877 c -1.73787,1.89685 -0.93396,0.91832 0,0 z m -22.33753,-2.53403 c 1.24606,-1.95615 1.47946,2.25201 0,0 z M 43.804224,140.88226 c 0.04762,-2.90116 1.792758,2.31078 0,0 z m 1.36379,-1.51414 c 0.507058,-1.37188 0.916454,1.36745 0,0 z m -2.021941,-2.49011 c -2.33425,-5.08588 3.300908,3.91731 0,0 z M 232.23709,125.27904 c -1.28392,-3.78385 1.12371,-0.94145 0,0 z m -171.054212,-2.0252 c -0.324962,-2.25673 1.170989,0.98348 4e-6,-4.8e-4 l -4e-6,4.8e-4 z m 2.669786,-0.66988 c 3.809751,-2.72055 -2.317965,3.00849 0,0 z m -4.04969,-0.92143 c 1.387247,-1.47007 0.907304,1.30518 0,0 z m 2.695926,-8.85284 c 0.506976,-1.37181 0.91648,1.36736 0,0 z M 56.721936,98.183276 c 0.506939,-1.371813 0.916544,1.367307 0,0 z m -2.130153,-3.098573 c -0.582487,-1.708613 2.035644,0.895623 0,0 z M 16.344051,91.639871 c 0.337029,-1.734949 0.337016,1.734987 0,0 z m 0.242246,-3.507628 c 0.564946,-8.441823 2.05975,-1.914922 0,0 z m 4.318507,-13.813139 c 0.984026,-1.380874 0.984011,1.380879 0,0 z m 1.155401,-2.136112 c 2.503255,-6.085743 1.393563,0.02143 0,0 z m 79.734225,-2.556273 c 1.1137,-3.060222 0.72341,1.50355 0,0 z M 23.600709,68.975854 c 0.6361,-1.797268 1.336194,0.663668 0,0 z M 98.48109,65.081365 c 1.324494,-2.924022 0.330187,2.570955 0,0 z M 48.775382,62.675701 c -1.348738,-3.556924 2.485733,-7.802314 4.88758,-8.994758 -1.89587,-5.848876 -4.26907,3.66891 -1.626221,-4.184704 -3.982575,-3.022893 0.29538,3.430335 -4.90261,4.293487 -0.287346,3.904469 0.142884,6.60133 -4.6374,2.777696 4.804074,-4.735525 -3.458995,-0.564984 -3.117754,-1.87852 C 36.72011,52.651645 23.464427,65.688216 32.261245,54.803213 54.87671,22.633139 94.829739,3.7762248 134.00413,6.6108713 c 4.03758,4.1750487 -12.5053,4.2859327 -19.5389,4.3588547 -4.50103,0.61742 -18.158144,5.480801 -9.39014,3.720513 10.79336,-0.735295 -5.41421,4.841057 -8.747793,4.601144 -9.176406,1.578392 4.582493,1.916334 6.610353,0.907254 1.23996,1.290026 6.68209,1.889955 9.42042,5.371132 -1.315,3.490464 -2.73992,4.144312 3.42384,6.129199 1.33145,5.121621 -3.34949,4.930806 -6.46211,8.583414 -6.5389,6.39966 -14.562855,10.159296 -24.50041,8.549639 -4.463422,-1.509152 -16.830493,9.200889 -10.95725,-1.625504 5.557227,-7.628499 12.65272,-7.140888 17.264515,-11.61999 5.512531,-2.705942 10.437825,-9.420707 15.123845,-7.883383 -4.94254,-1.038693 -10.698895,-1.503072 -8.910215,-4.55563 -5.754494,-2.570244 -16.599296,5.068963 -4.290202,0.433186 7.014557,2.180082 -11.173432,11.859547 -15.087141,13.693707 -0.840098,-1.198997 3.08486,-3.896603 -2.678358,0.443593 -7.783824,4.255596 1.811844,-10.386969 5.733556,-6.93341 0.882141,-0.340341 8.950617,-5.280457 0.863683,-3.275439 -6.455709,2.946824 -5.53593,0.228055 -2.214148,-1.90523 -8.894868,-5.072603 -16.345516,8.995143 -22.801999,12.269546 4.747103,-1.000541 15.36211,-7.803756 16.235894,-4.278708 -4.513081,4.474028 -7.0126,6.057017 -5.07951,7.789273 -6.299783,4.908694 -9.695397,12.109741 -15.228444,15.999169 1.036354,1.132188 -2.916692,6.397879 -4.018234,5.2925 z M 44.567848,46.413426 c 0.311715,-3.429116 -1.998459,5.282476 0,0 z M 43.540929,45.62247 c -0.331279,-2.696844 -1.039462,3.23286 -2e-6,0 l 2e-6,0 z m 4.13043,-3.635467 c 1.329685,-2.880638 -3.364503,2.824831 0,0 z m 2.31079,-3.464161 c -0.488862,-1.569832 -2.25153,1.838805 0,0 z m 3.748918,-2.395013 c 6.248638,-7.47828 -8.035374,6.630422 0,0 z m 33.993858,-8.382353 c -1.381832,-1.465541 -0.478424,1.517595 0,0 z m 15.918755,-4.612968 c 2.67863,0.677691 -2.2093,-0.386715 0,0 l 0,0 z M 92.251477,19.662446 c 3.161097,-3.826104 -4.848729,3.018158 0,0 z m 4.331474,-3.464145 c -0.478386,-1.517589 -1.381873,1.465505 0,0 z m 3.273586,-3.079242 c -1.503141,-1.406159 -1.503317,1.406108 0,0 z M 90.613418,58.33342 c -2.322274,-4.390268 3.847335,-6.576646 6.858673,-1.608201 -0.316987,2.755412 -5.285766,2.657734 -6.858673,1.608201 z m 53.019642,-3.13131 c -1.32165,-3.777787 4.01634,1.006423 0,0 z M 122.63222,44.395337 c -4.51498,-5.835139 7.49612,-6.283148 3.64347,-1.981752 1.73753,0.993325 -3.96361,0.661218 -3.64347,1.981752 z M 70.869057,39.244898 c 2.067756,-1.146904 -0.938468,1.183025 0,0 z m 79.816963,-0.538895 c -1.31903,-2.468321 2.49816,2.255783 0,0 z m -17.20273,-0.04516 c 0.50551,-0.194913 5.83474,-4.47582 4.16962,-1.19737 1.72639,0.130227 -3.26577,1.25069 -4.16962,1.19737 z M 63.047841,34.72025 c 5.604018,-3.518125 -0.7083,1.677044 0,0 z m 9.84956,-3.895522 c 3.102871,-1.418236 -1.487779,1.532341 0,0 z m 1.925661,-1.924536 c 1.503284,-1.406159 1.503259,1.406166 0,0 z m 34.380918,-6.775948 c 1.41789,-0.436558 0.70756,0.67032 0,0 z m -2.58205,-0.526791 c 0.15001,-2.431909 5.56209,0.868692 0,0 z m 2.57399,-1.806695 c -1.66053,-2.750155 3.03339,1.049711 0,0 z m -5.48807,-0.256033 c 7.55128,-5.871289 11.99404,-1.21525 0,0 z m 36.86889,-7.053047 c 2.2206,-0.29535 0.94184,0.549616 0,0 z"
             style="fill:url(#radialGradient3249);fill-opacity:1;stroke:#000000;stroke-width:0.19408301;stroke-miterlimit:4;stroke-dasharray:none" />
          <path
             inkscape:connector-curvature="0"
             id="path2284"
             d="M 120.55672,7.519937 C 98.040403,9.5420493 75.896522,16.836843 57.764909,30.58004 54.557557,34.508083 50.651105,42.718496 45.490336,42.8287 c 7.229972,-6.876977 -5.428474,0.05953 -0.196579,3.008847 -2.142308,9.529457 -2.90452,-6.323653 -6.584132,2.853084 -3.343364,3.861871 -8.919367,10.679216 -0.923667,4.442807 2.489431,-1.646098 8.329402,0.07246 7.103838,4.081886 2.693245,-3.439013 3.706141,-8.704206 4.576546,-9.489389 4.324672,0.557299 5.644402,9.833489 9.771896,1.664238 6.981273,-6.3996 4.881231,-9.983176 12.293483,-15.747465 -5.063767,2.725887 -23.041714,8.224599 -11.03025,-0.190176 6.577778,-6.748444 15.657898,-13.482689 22.877878,-6.943233 11.716611,-0.140809 -2.770241,5.897727 -6.097882,5.923992 -5.904995,6.01108 -0.642893,3.224792 4.401087,0.45746 -3.402401,5.256678 9.170227,-5.13956 12.309595,-7.557322 -1.005704,-0.108479 -13.754109,2.028893 -4.673463,-2.646018 7.357151,-0.412086 -5.550406,-2.622332 3.955668,-5.163013 3.479933,2.757535 12.117066,-0.527211 7.789556,-3.69664 9.72804,-4.9343044 22.13198,-2.907348 31.42386,-6.0552621 C 128.52826,7.2627328 124.5348,7.3692434 120.55672,7.519937 z m 32.69399,7.55239 c 2.6727,6.820823 12.06233,10.583631 3.97836,15.928096 -11.2295,-3.416829 3.03704,15.76921 -5.14961,14.466652 3.5613,4.421967 4.28875,7.223612 -2.51121,5.667115 3.30239,5.063128 -9.40722,4.619833 -6.78851,9.225865 -9.64743,-5.505285 -21.54114,-8.425478 -27.63453,3.862763 -5.1006,1.377219 -10.5366,11.870563 -1.79337,9.535848 3.87583,3.921851 -3.45472,9.798298 -1.26452,3.471843 -4.24322,7.605263 -13.919446,11.496846 -21.073714,13.845186 5.114902,7.264249 -3.050238,12.005945 -8.978821,6.97486 -3.009572,4.432665 -5.973155,10.228025 -1.6462,14.122605 -5.272184,10.18672 -17.844195,12.87358 -23.518887,23.10884 -2.895431,10.22013 -5.173976,21.01678 3.954816,28.9991 5.889118,11.00914 20.553444,5.61118 29.016772,10.89362 5.979351,3.06423 12.316454,4.0968 7.896168,12.64444 6.229526,7.13851 11.817856,16.35155 6.794206,24.87664 5.60017,8.85741 12.78105,21.02122 25.13707,16.18166 12.68897,0.17738 16.02754,-11.87736 24.24729,-17.50358 10.67481,-4.47579 -2.50496,-19.00574 8.81116,-24.78307 6.62316,-7.24636 13.67409,-14.64323 15.82053,-24.59031 -6.66336,1.85669 -13.88143,7.19343 -18.21446,-1.90643 -7.45113,-3.98172 -12.70203,-16.11402 -15.35751,-24.67606 9.14259,4.1018 15.1744,16.58947 20.73137,25.4382 9.26356,-4.9409 20.0273,-12.19875 22.54884,-23.1142 -0.61654,-2.51081 -7.36477,-8.30501 -8.66424,-1.80254 -5.24833,4.93926 -15.96171,-12.09179 -7.63894,-9.56424 4.11648,8.39308 13.69279,-2.45509 14.1944,3.28414 8.67969,-4.69278 16.92803,-3.44246 24.21068,2.94604 3.24215,5.82061 6.97893,14.74066 11.88623,12.39952 2.54789,1.97285 -6.10599,-12.41759 -1.65627,-17.1047 1.05571,-6.22516 3.80843,-25.30737 11.37867,-13.47829 2.00717,-12.52589 5.49573,17.05915 4.57227,0.62965 8.63421,-2.73225 -6.97507,-21.172494 -2.30187,-24.049415 -2.09345,-9.83508 -2.82175,-18.424609 -10.25787,-26.007389 -3.23775,-3.739473 -13.33401,-10.165469 -9.51391,-13.624893 10.21164,6.561942 -6.46044,-5.694925 -8.24485,-9.510581 -6.33126,-6.577548 -14.32304,-15.586024 -20.08341,-12.303394 -10.03833,-7.107171 -19.02025,-14.654131 -30.79973,-17.078209 -6.57754,-1.7337 -19.94568,-4.2683349 -7.54454,0.187514 1.81938,0.802368 3.63876,1.604736 5.45814,2.407104 z M 99.838809,11.835592 c 3.812151,4.529943 -6.245983,1.59769 0,0 z m -2.625805,3.171339 c 1.05147,5.476506 -5.871069,-0.239638 0,0 z m -0.320215,6.244628 c 0.342174,-0.288859 2.901325,6.503088 8.176101,5.002632 6.0502,4.746198 -8.151743,1.576854 -9.192748,7.947669 -5.312596,4.147435 -24.392568,11.259629 -19.933903,16.08807 11.619689,-4.852989 26.528641,0.0216 34.595141,-12.802867 10.05449,-2.952338 -4.18334,-7.755119 0.12479,-12.401363 -2.22951,-4.138735 -11.71925,2.757608 -7.49313,-3.801444 -2.26598,2.815514 -3.992779,-1.051223 -6.276251,-0.0327 z M 51.422192,35.669765 c -4.804241,4.749639 3.536182,-2.670432 0,0 z m 71.664198,5.459948 c -0.90765,4.385075 4.89014,-2.830374 0,0 z m 20.52587,2.190525 c 0.0236,6.481699 1.64554,7.990351 0.63551,0.70117 l -0.0912,-1.420447 -0.54433,0.719277 z m -51.42664,11.14877 c -3.028651,6.097769 8.37697,2.029656 0.192127,-0.0327 l -0.192127,0.0327 0,-5e-6 z m -41.660037,2.877103 c -2.95738,6.8925 4.087905,-1.399289 0,0 z m 87.322777,3.040569 c 8.13994,4.072776 -7.60353,6.973754 -1.33741,0.124124 l 1.33741,-0.124124 0,0 z m -11.04746,1.798186 c 1.79148,3.075349 -3.47956,7.226233 -4.37126,10.456388 -7.29395,-0.487555 2.0516,-9.591596 4.37126,-10.456388 z m 6.6925,6.865812 c 7.80987,4.026302 -4.09273,5.609036 0,0 z m -1.3769,1.798189 c -1.43046,8.357796 -5.71099,0.966805 0,0 z m -34.935518,1.438551 c -1.224349,1.884896 -14.489193,11.102608 -5.849606,7.87924 6.145427,-5.716674 3.989261,2.874392 0.853469,5.669502 10.718885,5.840838 5.527775,-11.602819 4.996137,-13.548742 z m 27.570548,0.228857 c 4.02236,-0.830835 3.72714,8.935311 -0.12402,5.473488 0.73997,9.883563 -19.2112,4.890514 -6.74524,0.04965 0.57055,-3.417941 3.39561,-5.507012 6.86926,-5.523135 z m 17.2276,0.653892 c 4.21645,4.450411 -5.44663,2.231003 0,0 z m 19.75729,22.428313 c 7.46842,1.219967 16.73072,21.75353 3.33026,15.20285 3.6729,-6.30516 -11.73113,-10.860868 -3.33026,-15.20285 z m -15.91469,1.209687 c -1.92609,4.867313 15.00709,9.166613 2.8807,11.473493 -9.05316,-2.49587 -20.50303,8.60991 -14.80541,-5.78936 1.01759,-9.637454 10.70902,2.98048 9.47159,-5.158805 l 1.21342,-0.486257 1.23968,-0.03908 2e-5,10e-6 z m -34.45523,2.288604 c 6.90038,4.908069 9.05057,12.033049 13.12885,18.766549 5.57087,-2.55024 -4.60977,-7.32355 4.82536,-8.47071 0.81785,11.13475 9.71976,7.74129 17.07135,8.39935 4.61072,16.37969 -15.5738,12.0861 -24.77401,9.9287 -3.16852,8.07012 -15.69659,-2.41907 -17.69974,-6.21389 4.82425,-12.49351 -26.726583,0.72297 -21.556571,-9.72443 8.648821,-0.13059 19.260441,-19.34062 26.397751,-5.96622 4.51483,2.40992 5.82479,9.84908 7.5098,4.23704 -2.42184,-2.35998 -9.65717,-7.98794 -4.90279,-10.956389 z m -7.30082,10.462159 c -0.39204,2.35969 0.80347,-1.61496 0,0 z m 6.7565,5.85232 c -1.68639,2.82276 5.67765,-1.30942 0,0 z m 128.69461,13.47002 c 0.6966,3.79068 -3.65706,7.38658 0.43992,8.46336 2.09888,-2.7343 -3.33136,-18.60537 -0.43992,-8.46336 z m -227.096836,2.51748 c 1.547213,15.80653 6.111321,31.31702 13.641174,45.31417 3.539533,-10.95103 -5.672594,-20.52533 -9.475532,-30.99302 -1.854322,-5.08106 -3.933316,-19.75088 -4.45384,-19.29885 0.09607,1.65923 0.192127,3.31847 0.288198,4.9777 z M 147.2947,186.75003 c 1.79728,8.22129 -10.40659,3.30289 -1.38714,0.045 l 1.38714,-0.045 0,0 z m -9.12612,10.62595 c 7.34756,2.0388 -2.63919,4.50014 0,0 z m 36.47252,5.78655 c -3.98072,2.20503 -14.17151,11.94833 -8.65838,13.9078 3.42233,-1.76151 11.22732,-13.0046 8.65838,-13.9078 z m -26.12958,0.42508 c 3.54549,11.32775 -6.09128,0.74644 0,0 z"
             style="fill:url(#radialGradient3251);fill-opacity:1;stroke:#000000;stroke-width:0.0194083;stroke-miterlimit:4;stroke-opacity:1;stroke-dasharray:none" />
        </g>
        <g
           id="layer1-5"
           inkscape:label="Layer 1">
          <path
             inkscape:connector-curvature="0"
             id="path1493"
             d="m 241.00027,121.99979 c 0.6218,45.10949 -28.50371,88.23823 -69.62613,105.04151 C 129.40579,245.32368 77.205892,235.01435 45.428622,201.63734 14.440888,170.78684 4.3239564,120.90568 20.90743,80.198779 37.362998,37.124211 81.507482,7.3345682 127.00014,7.9995739 172.49279,7.3345682 216.63728,37.124211 233.09285,80.198779 c 5.23808,13.253331 7.91965,27.525961 7.90742,41.801011 z"
             style="fill:none;stroke:#ffffff;stroke-width:0;stroke-linecap:butt;stroke-linejoin:miter;stroke-miterlimit:4;stroke-opacity:1" />
        </g>
        <g
           id="layer6"
           inkscape:label="cercles" />
      </g>
      <path
         inkscape:connector-curvature="0"
         id="path4426"
         d="m 272.9164,721.38037 104.06191,-32.8331"
         style="fill:#ffff00;stroke:#ffff00;stroke-width:3;stroke-linecap:butt;stroke-linejoin:miter;stroke-miterlimit:4;stroke-opacity:1;stroke-dasharray:none;marker-end:url(#Arrow1MendM)" />
      <path
         inkscape:connector-curvature="0"
         id="path4426-6"
         d="M 193.12659,423.53864 297.1885,390.70554"
         style="fill:#ffff00;stroke:#ffff00;stroke-width:3;stroke-linecap:butt;stroke-linejoin:miter;stroke-miterlimit:4;stroke-opacity:1;stroke-dasharray:none;marker-end:url(#Arrow1MendM);display:inline" />
    </g>
  </g>
</svg>
